<svg width="160" height="304" viewBox="0 0 160 304" fill="none" xmlns="http://www.w3.org/2000/svg">
<path fill-rule="evenodd" clip-rule="evenodd" d="M62.223 97.7574C63.245 111.652 129.084 152.561 129.469 153.709C129.639 154.219 122.808 170.344 108.975 202.086L114.731 204.313C135.948 170.697 146.012 152.098 144.922 148.516C143.362 143.388 126.334 126.518 93.8378 97.9055L62.223 97.7574Z" fill="#8D8D8D"/>
<path fill-rule="evenodd" clip-rule="evenodd" d="M110.49 194.917L119.886 198.324C139.7 176.055 147.467 157.68 146.051 148.318C145.106 142.077 128.137 125.234 95.1428 97.7915L61.5491 97.7915C62.6953 129.97 123.72 153.831 124.536 155.202C125.353 156.573 117.32 170.004 110.49 194.917Z" fill="#535353"/>
<path fill-rule="evenodd" clip-rule="evenodd" d="M106.843 201.023C105.668 202.397 104.937 203.479 104.649 204.268C104.3 205.229 103.949 206.689 103.599 208.648C104.713 209.053 114.727 212.698 133.64 219.582C135.36 217.285 135.416 215.728 133.809 214.91C132.202 214.092 130.872 213.397 129.82 212.827L118.123 201.52C117.898 201.303 117.539 201.309 117.322 201.534C117.318 201.538 117.314 201.541 117.311 201.545L115.621 203.396C113.799 203.556 112.402 203.458 111.428 203.104C110.638 202.816 109.662 202.099 108.5 200.953L108.5 200.953C108.055 200.513 107.337 200.518 106.897 200.964C106.878 200.983 106.86 201.003 106.843 201.023Z" fill="#E4E4E4"/>
<path fill-rule="evenodd" clip-rule="evenodd" d="M69.7931 97.7567L40.4634 167.897L11.6369 227.195H18.438L92.847 97.7567H69.7931Z" fill="#797979"/>
<path fill-rule="evenodd" clip-rule="evenodd" d="M11.2306 224.513C10.5965 226.206 10.2794 227.473 10.2794 228.313C10.2794 229.335 10.4497 230.827 10.7903 232.787C11.976 232.787 22.6322 232.787 42.7589 232.787C43.5897 230.041 43.1101 228.558 41.3202 228.339C39.5304 228.12 38.0435 227.923 36.8596 227.746L22.0009 221.122C21.715 220.995 21.3799 221.123 21.2524 221.409C21.2502 221.414 21.2481 221.419 21.2461 221.424L20.291 223.741C18.634 224.514 17.2876 224.9 16.2517 224.9C15.41 224.9 14.2476 224.56 12.7646 223.88L12.7646 223.88C12.1955 223.619 11.5226 223.869 11.2617 224.438C11.2504 224.463 11.2401 224.488 11.2306 224.513Z" fill="#E4E4E4"/>
<path fill-rule="evenodd" clip-rule="evenodd" d="M14.2399 214.876L29.3521 217.699C41.0367 200.587 89.9376 130.421 95.2991 97.7567H61.656C43.7512 121.369 25.3778 197.481 14.2399 214.876Z" fill="#848484"/>
<path fill-rule="evenodd" clip-rule="evenodd" d="M80.2862 29.5041C78.4871 25.924 77.6728 21.8832 78.9688 17.9059C82.7031 6.44647 98.4469 13.0976 100.166 19.7799C101.885 26.4621 97.7825 41.3023 93.4013 41.3276C91.6541 41.3378 88.4112 39.4373 85.3803 36.4218L83.7076 52.6538L70.5084 49.3629L80.2862 29.5041Z" fill="#8D8D8D"/>
<path fill-rule="evenodd" clip-rule="evenodd" d="M100.753 22.7348C100.812 21.9391 100.704 21.0119 100.626 20.2256C100.526 19.2119 100.232 18.2473 99.8758 17.3183C99.2048 15.5694 98.2899 13.913 97.1877 12.4528C95.1745 9.78553 92.258 7.80941 89.0064 7.4043C87.3647 7.19975 85.6675 7.41654 84.1007 8.09109C82.6851 8.70056 81.2083 9.74907 79.6439 9.46082C77.9418 9.14711 76.7709 7.29769 75.6524 6.05691C74.3913 4.65805 72.9644 3.51209 71.2651 2.78124C68.4183 1.55706 65.3827 1.85572 62.7358 3.75899C59.9192 5.78435 57.3981 9.15585 57.979 12.9148C58.087 13.6135 58.2958 14.232 58.6761 14.7962C59.0249 15.3136 59.6045 15.9161 59.6254 16.6091C59.6475 17.3457 58.8474 18.0894 58.4682 18.6545C57.9248 19.4642 57.428 20.3324 57.2807 21.323C57.0388 22.9498 57.6678 24.7172 58.471 26.0264C59.2883 27.3585 60.4683 28.2998 61.8209 28.9353C62.724 29.3597 63.669 29.7052 64.652 29.8755C65.1399 29.9601 65.5957 29.9335 66.0862 29.9444C66.5632 29.9549 66.786 30.1367 67.1079 30.4776C68.6033 32.0618 70.4069 32.9801 72.5041 33.3229C74.2742 33.6121 76.3771 33.6939 78.0856 32.8689C79.9829 31.9525 80.4014 30.1409 80.5122 28.1215C80.8559 28.4116 81.9099 28.8009 81.4536 27.8725C81.2728 27.5048 80.8189 27.2603 80.5343 26.9996C80.2029 26.696 79.8807 26.3301 79.6677 25.9166C78.8075 24.2468 80.7165 21.7611 82.3416 21.6782C84.7559 21.5551 84.474 24.826 85.8732 26.0391C86.6776 26.7366 87.8006 26.3373 88.6535 25.8565C89.796 25.2123 90.7149 24.2106 91.5529 23.167C92.2431 22.3076 92.9055 21.4268 93.6031 20.5744C93.9289 20.1764 94.9852 19.0849 94.7416 18.4822C96.4282 18.5653 98.0534 19.6737 99.2213 20.887C99.7039 21.3886 100.041 21.8931 100.189 22.6028C100.22 22.7548 100.262 23.1939 100.437 23.255C100.762 23.3688 100.738 22.9348 100.753 22.7348Z" fill="#303030"/>
<path fill-rule="evenodd" clip-rule="evenodd" d="M116.285 92.8499L134.131 106.375C139.011 107.777 143.079 109.486 146.334 111.503C147.099 112.221 148.013 113.664 144.795 113.361C141.577 113.059 138.178 112.884 137.714 113.97C137.25 115.056 139.178 116.398 138.253 117.858C137.637 118.832 134.849 116.315 129.889 110.309L112.117 102.61L116.285 92.8499ZM46.8692 92.0943L58.7113 92.3474C50.9889 115.709 46.8237 128.104 46.2158 129.531C44.848 132.742 47.537 137.715 48.6775 140.383C44.7824 142.036 45.3055 135.67 40.3905 137.842C35.9043 139.825 32.4538 143.498 27.3673 140.252C26.742 139.853 26.0748 138.379 27.7684 137.266C31.9878 134.494 38.0836 129.62 38.9241 127.995C40.0703 125.779 42.7186 113.812 46.8692 92.0943Z" fill="#8D8D8D"/>
<path fill-rule="evenodd" clip-rule="evenodd" d="M81.3881 43.2331L86.3032 42.4822C104.212 58.429 111.156 88.5852 133.166 104.88L127.686 111.403C89.1055 105.965 80.1617 69.1729 81.3881 43.2331Z" fill="#7E7E7E"/>
<path fill-rule="evenodd" clip-rule="evenodd" d="M58.9561 104.141C78.6051 104.484 93.0585 104.736 102.316 104.897C104.298 104.932 103.974 102.079 103.713 100.637C100.696 83.9997 88.1047 65.9025 88.5167 42.3018L76.0436 40.1319C65.4096 56.5073 61.4763 76.8285 58.9561 104.141Z" fill="#DDE3E9"/>
<path fill-rule="evenodd" clip-rule="evenodd" d="M60.1426 56.132C58.3352 55.5807 56.9179 54.3437 55.8907 52.4212C51.4625 44.1334 53.1924 39.6431 58.1036 38.2429C63.0149 36.8427 67.3182 39.9786 75.1019 40.1144C75.5253 40.1218 75.9126 40.155 76.2638 40.214L80.1753 40.5046C90.7477 78.5854 93.4047 103.916 88.1462 116.495L54.0184 115.899C51.9144 120.556 49.9106 124.47 48.0069 127.64L38.7077 127.478C38.324 99.3045 45.469 75.5224 60.1426 56.132Z" fill="#909090"/>
<path fill-rule="evenodd" clip-rule="evenodd" d="M61.7894 96.5733C62.7067 105.528 64.338 112.044 66.6833 116.121L54.0182 115.9C56.4724 110.469 59.0628 104.026 61.7894 96.5733V96.5733Z" fill="black" fill-opacity="0.1"/>
<path fill-rule="evenodd" clip-rule="evenodd" d="M150.216 219.768H91.6789C87.1809 219.768 83.5346 223.516 83.5346 228.14V276.279C83.5346 280.903 87.1809 284.651 91.6789 284.651H150.216C154.714 284.651 158.36 280.903 158.36 276.279V228.14C158.36 223.516 154.714 219.768 150.216 219.768ZM142.072 234.419C143.196 234.419 144.108 235.356 144.108 236.512V267.907C144.108 269.063 143.196 270 142.072 270H99.8231C98.6987 270 97.7871 269.063 97.7871 267.907V236.512C97.7871 235.356 98.6987 234.419 99.8231 234.419H142.072Z" fill="#CECECE"/>
<path fill-rule="evenodd" clip-rule="evenodd" d="M66.6812 239H8.14428C3.64632 239 1.19209e-05 242.748 1.19209e-05 247.372V295.511C1.19209e-05 300.135 3.64632 303.884 8.14428 303.884H66.6812C71.1791 303.884 74.8254 300.135 74.8254 295.511V247.372C74.8254 242.748 71.1791 239 66.6812 239ZM58.5369 253.651C59.6614 253.651 60.573 254.588 60.573 255.744V287.139C60.573 288.295 59.6614 289.232 58.5369 289.232H16.2885C15.1641 289.232 14.2525 288.295 14.2525 287.139V255.744C14.2525 254.588 15.1641 253.651 16.2885 253.651H58.5369Z" fill="#CECECE"/>
</svg>
