<svg width="183" height="309" viewBox="0 0 183 309" fill="none" xmlns="http://www.w3.org/2000/svg">
<path fill-rule="evenodd" clip-rule="evenodd" d="M85.019 21.5482C82.2965 18.3525 80.4538 14.4361 80.7618 10.0477C81.6489 -2.59657 99.2501 0.185004 102.674 6.56673C106.098 12.9485 105.691 29.1362 101.266 30.2768C99.5013 30.7317 95.742 29.6174 91.916 27.3113L94.3175 44.3013H80.1374L85.019 21.5482Z" fill="#5E5E5E"/>
<path fill-rule="evenodd" clip-rule="evenodd" d="M92.6249 11.444C93.1677 19.0051 94.6036 22.7856 96.9324 22.7856C100.426 22.7856 103.39 20.5678 104.923 20.5678C106.04 20.5678 105.791 21.9661 105.05 23.0029C104.439 23.8583 101.463 24.6827 101.463 26.0088C101.463 27.3349 103.814 26.309 103.814 27.0955C103.814 28.3964 104.228 30.8424 101.97 30.8424C99.6845 30.8424 93.1327 30.0097 92.0099 26.6182C91.2853 24.4295 90.8168 19.8939 90.6044 13.0117C90.4658 12.9952 90.3247 12.9867 90.1816 12.9867C88.2238 12.9867 86.6366 14.5739 86.6366 16.5317C86.6366 17.5257 87.0456 18.424 87.7046 19.0677C86.8843 20.2256 85.965 21.435 84.9116 22.6831C80.9541 20.3088 78.0175 13.3583 81.8865 6.68144C82.956 3.41053 85.377 1.66342 88.2362 0.852178C90.5524 -0.116673 92.9567 -0.225913 94.9864 0.354905C98.965 0.696169 102.518 1.90937 103.525 2.62986C103.525 6.39659 102.795 7.51417 96.5608 7.41566C95.029 8.22462 93.8515 9.61767 92.6249 11.444Z" fill="#303030"/>
<path fill-rule="evenodd" clip-rule="evenodd" d="M76.9833 88.3745L59.3093 165.289L40.1919 227.444L46.5215 231.795L98.7361 103.325L76.9833 88.3745Z" fill="#555353"/>
<path fill-rule="evenodd" clip-rule="evenodd" d="M77.2199 108.798C96.4833 125.952 119.736 152.133 120.478 153.731C120.972 154.796 120.395 176.236 118.748 218.049L126.491 217.771C134.81 173.976 138.423 150.424 137.332 147.114C135.696 142.15 110.207 108.462 96.1684 87L77.2199 108.798Z" fill="#5B5B5B"/>
<path fill-rule="evenodd" clip-rule="evenodd" d="M37.5392 225.719C36.3782 227.203 35.666 228.362 35.4026 229.198C35.0822 230.214 34.7839 231.75 34.5078 233.806C35.6866 234.178 46.2806 237.518 66.2899 243.827C67.9767 241.357 67.9647 239.733 66.2539 238.954C64.5431 238.175 63.1269 237.513 62.0053 236.966L49.3097 225.723C49.0654 225.507 48.692 225.529 48.4756 225.774C48.4719 225.778 48.4683 225.782 48.4647 225.786L46.7889 227.79C44.8993 228.04 43.4396 228.002 42.4097 227.677C41.5729 227.413 40.5239 226.711 39.2626 225.57L39.2626 225.57C38.7786 225.132 38.0313 225.17 37.5936 225.654C37.5747 225.675 37.5566 225.696 37.5392 225.719Z" fill="#E4E4E4"/>
<path fill-rule="evenodd" clip-rule="evenodd" d="M116.991 216.586C116.33 218.351 116 219.671 116 220.547C116 221.613 116.177 223.167 116.532 225.211C117.768 225.211 128.877 225.211 149.857 225.211C150.723 222.349 150.223 220.803 148.357 220.575C146.491 220.346 144.941 220.14 143.707 219.956L128.218 213.051C127.92 212.918 127.571 213.052 127.438 213.35C127.436 213.356 127.434 213.361 127.432 213.366L126.436 215.781C124.709 216.587 123.305 216.99 122.225 216.99C121.348 216.99 120.136 216.635 118.59 215.927L118.59 215.927C117.997 215.655 117.296 215.915 117.024 216.508C117.012 216.534 117.001 216.56 116.991 216.586Z" fill="#E4E4E4"/>
<path fill-rule="evenodd" clip-rule="evenodd" d="M37.1593 214.081L72.0313 225.618L99.2813 100.563L69.5197 87L37.1593 214.081Z" fill="#8B8B8B"/>
<path fill-rule="evenodd" clip-rule="evenodd" d="M100.718 202.931L137.234 209.572C139.175 172.263 139.088 149.034 136.974 139.885C134.86 130.736 123.284 110.775 102.246 80.0001L73.8334 103.421C93.2017 129.787 103.124 143.758 103.601 145.335C104.077 146.912 103.116 166.111 100.718 202.931Z" fill="#ABABAB"/>
<path fill-rule="evenodd" clip-rule="evenodd" d="M130.682 85.8678L147.42 102.196C152.29 104.273 156.28 106.567 159.39 109.077C160.09 109.921 160.851 111.537 157.56 110.814C154.269 110.09 150.775 109.478 150.156 110.548C149.538 111.618 151.36 113.258 150.217 114.659C149.455 115.593 146.892 112.622 142.528 105.748L125.123 95.4867L130.682 85.8678ZM48.8374 71.0906L61.7752 71.1391C51.9214 103.064 46.6906 119.78 46.083 121.286C44.7158 124.674 47.6089 129.834 48.8461 132.607C44.8166 134.41 45.2459 127.733 40.1628 130.098C35.5231 132.256 31.9937 136.167 26.6332 132.86C25.9742 132.453 25.252 130.922 26.9969 129.725C31.3442 126.745 37.6088 121.528 38.4553 119.81C39.6095 117.469 43.0703 101.229 48.8374 71.0906Z" fill="#5A5A5A"/>
<path fill-rule="evenodd" clip-rule="evenodd" d="M88.2612 34.3891L93.3703 33.5127C101.419 61.9627 142.771 81.3554 145.309 91.9907C146.24 95.891 143.433 97.8626 144.883 99.0506L138.242 103.912C137.118 102.6 134.718 105 129.706 103.321C124.695 101.642 88.2612 68.0763 88.2612 34.3891Z" fill="#565454"/>
<path fill-rule="evenodd" clip-rule="evenodd" d="M96.8554 38.1713C96.2664 75.8369 118.04 85.4448 113.19 100.555C109.185 113.032 70.8506 126.446 64.2171 114.215C61.5319 109.264 60.3136 103.276 60.1754 96.7659C58.48 101.767 57.1391 106.073 56.1528 109.683C54.4512 115.91 47.8545 116.9 47.8545 119.299L39.1635 116.9C39.753 113.641 35.6558 112.054 36.7544 104.773C41.6765 72.148 54.9015 48.4994 76.4293 33.8269L76.6521 30.642C76.7431 29.3399 77.8725 28.3582 79.1745 28.4492L95.0883 29.562C96.3904 29.6531 97.3721 30.7824 97.2811 32.0845L96.8554 38.1713Z" fill="#686666"/>
<path fill-rule="evenodd" clip-rule="evenodd" d="M174.216 224.768H115.679C111.181 224.768 107.535 228.516 107.535 233.14V281.279C107.535 285.903 111.181 289.651 115.679 289.651H174.216C178.714 289.651 182.36 285.903 182.36 281.279V233.14C182.36 228.516 178.714 224.768 174.216 224.768ZM166.071 239.419C167.196 239.419 168.108 240.356 168.108 241.512V272.907C168.108 274.063 167.196 275 166.071 275H123.823C122.699 275 121.787 274.063 121.787 272.907V241.512C121.787 240.356 122.699 239.419 123.823 239.419H166.071Z" fill="#CECECE"/>
<path fill-rule="evenodd" clip-rule="evenodd" d="M74.6811 244H16.1442C11.6462 244 7.99991 247.748 7.99991 252.372V300.511C7.99991 305.135 11.6462 308.884 16.1442 308.884H74.6811C79.179 308.884 82.8253 305.135 82.8253 300.511V252.372C82.8253 247.748 79.179 244 74.6811 244ZM66.5368 258.651C67.6613 258.651 68.5729 259.588 68.5729 260.744V292.139C68.5729 293.295 67.6613 294.232 66.5368 294.232H24.2884C23.1639 294.232 22.2524 293.295 22.2524 292.139V260.744C22.2524 259.588 23.1639 258.651 24.2884 258.651H66.5368Z" fill="#CECECE"/>
</svg>
