<svg width="800" height="183" viewBox="0 0 800 183" fill="none" xmlns="http://www.w3.org/2000/svg">
<g opacity="0.5">
<rect x="365.346" y="29.7928" width="7.7978" height="12.1456" rx="2" transform="rotate(15.052 365.346 29.7928)" fill="#B9B9B9"/>
<path fill-rule="evenodd" clip-rule="evenodd" d="M370.066 42.1585C370.319 45.5923 386.589 55.7019 386.684 55.9855C386.727 56.1116 385.038 60.0967 381.62 67.9408L383.042 68.4913C388.286 60.1839 390.773 55.5875 390.503 54.7024C390.118 53.435 385.91 49.2659 377.879 42.1951L370.066 42.1585Z" fill="#8D8D8D"/>
<path fill-rule="evenodd" clip-rule="evenodd" d="M381.994 66.1692L384.316 67.0112C389.213 61.5078 391.132 56.9669 390.782 54.6533C390.549 53.1109 386.355 48.9487 378.202 42.1669L369.9 42.1669C370.183 50.119 385.264 56.0157 385.466 56.3546C385.667 56.6934 383.682 60.0124 381.994 66.1692Z" fill="#535353"/>
<path fill-rule="evenodd" clip-rule="evenodd" d="M381.265 68.125C381.123 68.5486 381.055 68.8641 381.062 69.0717C381.071 69.3241 381.126 69.691 381.227 70.1724C381.52 70.1621 384.152 70.0702 389.123 69.8966C389.304 69.2112 389.173 68.8491 388.729 68.8105C388.285 68.7718 387.916 68.7358 387.622 68.7024L383.895 67.1946C383.824 67.1656 383.742 67.2002 383.713 67.2719C383.712 67.2731 383.712 67.2744 383.712 67.2756L383.496 67.8561C383.093 68.0613 382.764 68.1684 382.508 68.1773C382.3 68.1846 382.01 68.1106 381.638 67.9555L381.638 67.9555C381.495 67.896 381.331 67.9635 381.272 68.1063C381.269 68.1125 381.267 68.1187 381.265 68.125Z" fill="#E4E4E4"/>
<path fill-rule="evenodd" clip-rule="evenodd" d="M371.937 42.1585L364.689 59.4919L357.565 74.1459H359.246L377.634 42.1585H371.937Z" fill="#797979"/>
<path fill-rule="evenodd" clip-rule="evenodd" d="M357.723 72.5751C357.469 72.9431 357.318 73.2279 357.268 73.4294C357.206 73.6745 357.158 74.0423 357.122 74.5329C357.407 74.6037 359.962 75.2408 364.788 76.4441C365.152 75.8352 365.125 75.451 364.709 75.2915C364.293 75.132 363.948 74.9957 363.675 74.8826L360.508 72.4059C360.447 72.3582 360.359 72.369 360.311 72.4299C360.311 72.431 360.31 72.432 360.309 72.4331L359.941 72.9315C359.498 73.0179 359.152 73.0301 358.904 72.9681C358.702 72.9178 358.443 72.7668 358.128 72.5151L358.128 72.5151C358.008 72.4185 357.831 72.4382 357.735 72.5591C357.731 72.5643 357.727 72.5697 357.723 72.5751Z" fill="#E4E4E4"/>
<path fill-rule="evenodd" clip-rule="evenodd" d="M358.208 71.1017L361.943 71.7994C364.831 67.5705 376.915 50.2306 378.24 42.1585H369.926C365.501 47.9938 360.961 66.8029 358.208 71.1017Z" fill="#848484"/>
<path fill-rule="evenodd" clip-rule="evenodd" d="M374.53 25.2914C374.086 24.4066 373.884 23.408 374.205 22.4251C375.127 19.5932 379.018 21.2369 379.443 22.8882C379.868 24.5396 378.854 28.207 377.771 28.2133C377.339 28.2158 376.538 27.7461 375.789 27.0009L375.376 31.0122L372.114 30.199L374.53 25.2914Z" fill="#8D8D8D"/>
<path fill-rule="evenodd" clip-rule="evenodd" d="M379.588 23.6184C379.603 23.4217 379.576 23.1926 379.557 22.9983C379.532 22.7478 379.459 22.5094 379.371 22.2798C379.205 21.8476 378.979 21.4383 378.707 21.0774C378.209 20.4183 377.489 19.9299 376.685 19.8298C376.279 19.7792 375.86 19.8328 375.473 19.9995C375.123 20.1501 374.758 20.4093 374.371 20.338C373.951 20.2605 373.661 19.8035 373.385 19.4968C373.073 19.1511 372.721 18.8679 372.301 18.6873C371.597 18.3848 370.847 18.4586 370.193 18.9289C369.497 19.4295 368.874 20.2627 369.017 21.1916C369.044 21.3643 369.096 21.5171 369.19 21.6565C369.276 21.7844 369.419 21.9333 369.424 22.1046C369.43 22.2866 369.232 22.4704 369.138 22.61C369.004 22.8101 368.881 23.0247 368.845 23.2695C368.785 23.6715 368.941 24.1083 369.139 24.4318C369.341 24.761 369.633 24.9936 369.967 25.1507C370.19 25.2556 370.424 25.3409 370.667 25.383C370.787 25.4039 370.9 25.3974 371.021 25.4C371.139 25.4026 371.194 25.4476 371.273 25.5318C371.643 25.9233 372.089 26.1502 372.607 26.235C373.044 26.3064 373.564 26.3267 373.986 26.1228C374.455 25.8963 374.559 25.4486 374.586 24.9496C374.671 25.0213 374.931 25.1175 374.819 24.888C374.774 24.7972 374.662 24.7367 374.591 24.6723C374.51 24.5973 374.43 24.5069 374.377 24.4047C374.165 23.992 374.637 23.3777 375.038 23.3573C375.635 23.3268 375.565 24.1352 375.911 24.4349C376.11 24.6073 376.387 24.5087 376.598 24.3898C376.88 24.2306 377.107 23.9831 377.314 23.7252C377.485 23.5128 377.649 23.2951 377.821 23.0845C377.902 22.9861 378.163 22.7164 378.102 22.5674C378.519 22.588 378.921 22.8619 379.21 23.1617C379.329 23.2857 379.412 23.4104 379.449 23.5857C379.456 23.6233 379.467 23.7318 379.51 23.7469C379.59 23.775 379.584 23.6678 379.588 23.6184Z" fill="#303030"/>
<path fill-rule="evenodd" clip-rule="evenodd" d="M383.426 40.946L387.837 44.2883C389.043 44.6347 390.048 45.0572 390.852 45.5556C391.041 45.733 391.267 46.0897 390.472 46.0149C389.677 45.94 388.837 45.8969 388.722 46.1653C388.607 46.4337 389.084 46.7653 388.855 47.1261C388.703 47.3667 388.014 46.7448 386.788 45.2605L382.396 43.3579L383.426 40.946ZM366.272 40.7592L369.198 40.8218C367.29 46.5951 366.261 49.6581 366.11 50.0108C365.772 50.8043 366.437 52.0333 366.719 52.6925C365.756 53.1012 365.885 51.5279 364.671 52.0647C363.562 52.5546 362.71 53.4625 361.452 52.6602C361.298 52.5615 361.133 52.1974 361.552 51.9224C362.594 51.2373 364.101 50.0327 364.308 49.6312C364.592 49.0836 365.246 46.1263 366.272 40.7592Z" fill="#8D8D8D"/>
<path fill-rule="evenodd" clip-rule="evenodd" d="M374.802 28.6842L376.017 28.4986C380.443 32.4395 382.159 39.8918 387.598 43.9188L386.244 45.5307C376.71 44.1867 374.499 35.0946 374.802 28.6842Z" fill="#7E7E7E"/>
<path fill-rule="evenodd" clip-rule="evenodd" d="M369.259 43.7361C374.115 43.8209 377.687 43.8832 379.974 43.9231C380.464 43.9317 380.384 43.2265 380.319 42.8703C379.574 38.7588 376.462 34.2865 376.564 28.4541L373.482 27.9179C370.854 31.9647 369.882 36.9866 369.259 43.7361Z" fill="#DDE3E9"/>
<path fill-rule="evenodd" clip-rule="evenodd" d="M369.552 31.8721C369.105 31.7358 368.755 31.4302 368.501 30.955C367.407 28.9069 367.834 27.7972 369.048 27.4512C370.262 27.1052 371.325 27.8801 373.249 27.9137C373.354 27.9155 373.449 27.9237 373.536 27.9383L374.503 28.0102C377.115 37.4209 377.772 43.6806 376.472 46.7894L368.039 46.6421C367.519 47.7929 367.023 48.7601 366.553 49.5437L364.255 49.5036C364.16 42.5411 365.926 36.664 369.552 31.8721Z" fill="#909090"/>
<path fill-rule="evenodd" clip-rule="evenodd" d="M369.959 41.866C370.186 44.079 370.589 45.6893 371.168 46.6968L368.039 46.6422C368.645 45.2999 369.285 43.7078 369.959 41.866Z" fill="black" fill-opacity="0.1"/>
<path d="M369 43C374 35.5 369.777 31.3492 369 31.5" stroke="#6C6B6B"/>
<rect x="369.388" y="31.029" width="0.614814" height="1.08339" transform="rotate(35.5 369.388 31.029)" fill="#B9B9B9"/>
<path d="M368.52 31C368.52 31 369.52 33 371.52 31H368.52Z" fill="#909090"/>
<path d="M370 41.5C369.833 42.1667 369.2 44.1 368 46.5V40H370V41.5Z" fill="#909090" stroke="#909090" stroke-width="0.1"/>
</g>
<path d="M435.807 4.805H432.207V3.5H440.892V4.805H437.292V14H435.807V4.805ZM446.561 5.975C447.571 5.975 448.371 6.27 448.961 6.86C449.561 7.44 449.861 8.295 449.861 9.425V14H448.421V9.59C448.421 8.82 448.236 8.24 447.866 7.85C447.496 7.46 446.966 7.265 446.276 7.265C445.496 7.265 444.881 7.495 444.431 7.955C443.981 8.405 443.756 9.055 443.756 9.905V14H442.316V2.87H443.756V7.175C444.056 6.795 444.446 6.5 444.926 6.29C445.416 6.08 445.961 5.975 446.561 5.975ZM459.755 10.07C459.755 10.18 459.745 10.325 459.725 10.505H453.275C453.365 11.205 453.67 11.77 454.19 12.2C454.72 12.62 455.375 12.83 456.155 12.83C457.105 12.83 457.87 12.51 458.45 11.87L459.245 12.8C458.885 13.22 458.435 13.54 457.895 13.76C457.365 13.98 456.77 14.09 456.11 14.09C455.27 14.09 454.525 13.92 453.875 13.58C453.225 13.23 452.72 12.745 452.36 12.125C452.01 11.505 451.835 10.805 451.835 10.025C451.835 9.255 452.005 8.56 452.345 7.94C452.695 7.32 453.17 6.84 453.77 6.5C454.38 6.15 455.065 5.975 455.825 5.975C456.585 5.975 457.26 6.15 457.85 6.5C458.45 6.84 458.915 7.32 459.245 7.94C459.585 8.56 459.755 9.27 459.755 10.07ZM455.825 7.19C455.135 7.19 454.555 7.4 454.085 7.82C453.625 8.24 453.355 8.79 453.275 9.47H458.375C458.295 8.8 458.02 8.255 457.55 7.835C457.09 7.405 456.515 7.19 455.825 7.19ZM463.134 7.385C463.384 6.925 463.754 6.575 464.244 6.335C464.734 6.095 465.329 5.975 466.029 5.975V7.37C465.949 7.36 465.839 7.355 465.699 7.355C464.919 7.355 464.304 7.59 463.854 8.06C463.414 8.52 463.194 9.18 463.194 10.04V14H461.754V6.05H463.134V7.385ZM474.916 10.07C474.916 10.18 474.906 10.325 474.886 10.505H468.436C468.526 11.205 468.831 11.77 469.351 12.2C469.881 12.62 470.536 12.83 471.316 12.83C472.266 12.83 473.031 12.51 473.611 11.87L474.406 12.8C474.046 13.22 473.596 13.54 473.056 13.76C472.526 13.98 471.931 14.09 471.271 14.09C470.431 14.09 469.686 13.92 469.036 13.58C468.386 13.23 467.881 12.745 467.521 12.125C467.171 11.505 466.996 10.805 466.996 10.025C466.996 9.255 467.166 8.56 467.506 7.94C467.856 7.32 468.331 6.84 468.931 6.5C469.541 6.15 470.226 5.975 470.986 5.975C471.746 5.975 472.421 6.15 473.011 6.5C473.611 6.84 474.076 7.32 474.406 7.94C474.746 8.56 474.916 9.27 474.916 10.07ZM470.986 7.19C470.296 7.19 469.716 7.4 469.246 7.82C468.786 8.24 468.516 8.79 468.436 9.47H473.536C473.456 8.8 473.181 8.255 472.711 7.835C472.251 7.405 471.676 7.19 470.986 7.19ZM477.246 2.78C477.526 2.78 477.756 2.88 477.936 3.08C478.126 3.27 478.221 3.51 478.221 3.8C478.221 3.95 478.206 4.1 478.176 4.25C478.146 4.39 478.081 4.595 477.981 4.865L477.261 6.965H476.316L476.871 4.73C476.681 4.66 476.526 4.545 476.406 4.385C476.296 4.215 476.241 4.02 476.241 3.8C476.241 3.5 476.336 3.255 476.526 3.065C476.716 2.875 476.956 2.78 477.246 2.78ZM482.315 14.09C481.665 14.09 481.04 14.005 480.44 13.835C479.84 13.655 479.37 13.43 479.03 13.16L479.63 12.02C479.98 12.27 480.405 12.47 480.905 12.62C481.405 12.77 481.91 12.845 482.42 12.845C483.68 12.845 484.31 12.485 484.31 11.765C484.31 11.525 484.225 11.335 484.055 11.195C483.885 11.055 483.67 10.955 483.41 10.895C483.16 10.825 482.8 10.75 482.33 10.67C481.69 10.57 481.165 10.455 480.755 10.325C480.355 10.195 480.01 9.975 479.72 9.665C479.43 9.355 479.285 8.92 479.285 8.36C479.285 7.64 479.585 7.065 480.185 6.635C480.785 6.195 481.59 5.975 482.6 5.975C483.13 5.975 483.66 6.04 484.19 6.17C484.72 6.3 485.155 6.475 485.495 6.695L484.88 7.835C484.23 7.415 483.465 7.205 482.585 7.205C481.975 7.205 481.51 7.305 481.19 7.505C480.87 7.705 480.71 7.97 480.71 8.3C480.71 8.56 480.8 8.765 480.98 8.915C481.16 9.065 481.38 9.175 481.64 9.245C481.91 9.315 482.285 9.395 482.765 9.485C483.405 9.595 483.92 9.715 484.31 9.845C484.71 9.965 485.05 10.175 485.33 10.475C485.61 10.775 485.75 11.195 485.75 11.735C485.75 12.455 485.44 13.03 484.82 13.46C484.21 13.88 483.375 14.09 482.315 14.09ZM494.473 5.975C495.573 5.975 496.413 6.245 496.993 6.785C497.583 7.325 497.878 8.13 497.878 9.2V14H496.513V12.95C496.273 13.32 495.928 13.605 495.478 13.805C495.038 13.995 494.513 14.09 493.903 14.09C493.013 14.09 492.298 13.875 491.758 13.445C491.228 13.015 490.963 12.45 490.963 11.75C490.963 11.05 491.218 10.49 491.728 10.07C492.238 9.64 493.048 9.425 494.158 9.425H496.438V9.14C496.438 8.52 496.258 8.045 495.898 7.715C495.538 7.385 495.008 7.22 494.308 7.22C493.838 7.22 493.378 7.3 492.928 7.46C492.478 7.61 492.098 7.815 491.788 8.075L491.188 6.995C491.598 6.665 492.088 6.415 492.658 6.245C493.228 6.065 493.833 5.975 494.473 5.975ZM494.143 12.98C494.693 12.98 495.168 12.86 495.568 12.62C495.968 12.37 496.258 12.02 496.438 11.57V10.46H494.218C492.998 10.46 492.388 10.87 492.388 11.69C492.388 12.09 492.543 12.405 492.853 12.635C493.163 12.865 493.593 12.98 494.143 12.98ZM504.572 2.87H506.012V14H504.572V2.87ZM512.166 14.09C511.376 14.09 510.666 13.915 510.036 13.565C509.406 13.215 508.911 12.735 508.551 12.125C508.201 11.505 508.026 10.805 508.026 10.025C508.026 9.245 508.201 8.55 508.551 7.94C508.911 7.32 509.406 6.84 510.036 6.5C510.666 6.15 511.376 5.975 512.166 5.975C512.956 5.975 513.661 6.15 514.281 6.5C514.911 6.84 515.401 7.32 515.751 7.94C516.111 8.55 516.291 9.245 516.291 10.025C516.291 10.805 516.111 11.505 515.751 12.125C515.401 12.735 514.911 13.215 514.281 13.565C513.661 13.915 512.956 14.09 512.166 14.09ZM512.166 12.83C512.676 12.83 513.131 12.715 513.531 12.485C513.941 12.245 514.261 11.915 514.491 11.495C514.721 11.065 514.836 10.575 514.836 10.025C514.836 9.475 514.721 8.99 514.491 8.57C514.261 8.14 513.941 7.81 513.531 7.58C513.131 7.35 512.676 7.235 512.166 7.235C511.656 7.235 511.196 7.35 510.786 7.58C510.386 7.81 510.066 8.14 509.826 8.57C509.596 8.99 509.481 9.475 509.481 10.025C509.481 10.575 509.596 11.065 509.826 11.495C510.066 11.915 510.386 12.245 510.786 12.485C511.196 12.715 511.656 12.83 512.166 12.83ZM522.527 5.975C523.537 5.975 524.337 6.27 524.927 6.86C525.527 7.44 525.827 8.295 525.827 9.425V14H524.387V9.59C524.387 8.82 524.202 8.24 523.832 7.85C523.462 7.46 522.932 7.265 522.242 7.265C521.462 7.265 520.847 7.495 520.397 7.955C519.947 8.405 519.722 9.055 519.722 9.905V14H518.282V6.05H519.662V7.25C519.952 6.84 520.342 6.525 520.832 6.305C521.332 6.085 521.897 5.975 522.527 5.975ZM536.141 6.05V12.92C536.141 14.31 535.796 15.335 535.106 15.995C534.416 16.665 533.386 17 532.016 17C531.266 17 530.551 16.895 529.871 16.685C529.191 16.485 528.641 16.195 528.221 15.815L528.911 14.705C529.281 15.025 529.736 15.275 530.276 15.455C530.826 15.645 531.391 15.74 531.971 15.74C532.901 15.74 533.586 15.52 534.026 15.08C534.476 14.64 534.701 13.97 534.701 13.07V12.44C534.361 12.85 533.941 13.16 533.441 13.37C532.951 13.57 532.416 13.67 531.836 13.67C531.076 13.67 530.386 13.51 529.766 13.19C529.156 12.86 528.676 12.405 528.326 11.825C527.976 11.235 527.801 10.565 527.801 9.815C527.801 9.065 527.976 8.4 528.326 7.82C528.676 7.23 529.156 6.775 529.766 6.455C530.386 6.135 531.076 5.975 531.836 5.975C532.436 5.975 532.991 6.085 533.501 6.305C534.021 6.525 534.446 6.85 534.776 7.28V6.05H536.141ZM532.001 12.41C532.521 12.41 532.986 12.3 533.396 12.08C533.816 11.86 534.141 11.555 534.371 11.165C534.611 10.765 534.731 10.315 534.731 9.815C534.731 9.045 534.476 8.425 533.966 7.955C533.456 7.475 532.801 7.235 532.001 7.235C531.191 7.235 530.531 7.475 530.021 7.955C529.511 8.425 529.256 9.045 529.256 9.815C529.256 10.315 529.371 10.765 529.601 11.165C529.841 11.555 530.166 11.86 530.576 12.08C530.996 12.3 531.471 12.41 532.001 12.41ZM541.901 17C541.551 17 541.226 16.96 540.926 16.88C540.626 16.8 540.376 16.68 540.176 16.52L540.641 15.41C540.941 15.66 541.331 15.785 541.811 15.785C542.191 15.785 542.481 15.665 542.681 15.425C542.891 15.195 542.996 14.85 542.996 14.39V6.05H544.436V14.36C544.436 15.18 544.216 15.825 543.776 16.295C543.336 16.765 542.711 17 541.901 17ZM543.716 4.52C543.436 4.52 543.201 4.43 543.011 4.25C542.831 4.07 542.741 3.85 542.741 3.59C542.741 3.33 542.831 3.11 543.011 2.93C543.201 2.74 543.436 2.645 543.716 2.645C543.996 2.645 544.226 2.735 544.406 2.915C544.596 3.085 544.691 3.3 544.691 3.56C544.691 3.83 544.596 4.06 544.406 4.25C544.226 4.43 543.996 4.52 543.716 4.52ZM550.589 14.09C549.799 14.09 549.089 13.915 548.459 13.565C547.829 13.215 547.334 12.735 546.974 12.125C546.624 11.505 546.449 10.805 546.449 10.025C546.449 9.245 546.624 8.55 546.974 7.94C547.334 7.32 547.829 6.84 548.459 6.5C549.089 6.15 549.799 5.975 550.589 5.975C551.379 5.975 552.084 6.15 552.704 6.5C553.334 6.84 553.824 7.32 554.174 7.94C554.534 8.55 554.714 9.245 554.714 10.025C554.714 10.805 554.534 11.505 554.174 12.125C553.824 12.735 553.334 13.215 552.704 13.565C552.084 13.915 551.379 14.09 550.589 14.09ZM550.589 12.83C551.099 12.83 551.554 12.715 551.954 12.485C552.364 12.245 552.684 11.915 552.914 11.495C553.144 11.065 553.259 10.575 553.259 10.025C553.259 9.475 553.144 8.99 552.914 8.57C552.684 8.14 552.364 7.81 551.954 7.58C551.554 7.35 551.099 7.235 550.589 7.235C550.079 7.235 549.619 7.35 549.209 7.58C548.809 7.81 548.489 8.14 548.249 8.57C548.019 8.99 547.904 9.475 547.904 10.025C547.904 10.575 548.019 11.065 548.249 11.495C548.489 11.915 548.809 12.245 549.209 12.485C549.619 12.715 550.079 12.83 550.589 12.83ZM564.115 6.05V14H562.75V12.8C562.46 13.21 562.075 13.53 561.595 13.76C561.125 13.98 560.61 14.09 560.05 14.09C558.99 14.09 558.155 13.8 557.545 13.22C556.935 12.63 556.63 11.765 556.63 10.625V6.05H558.07V10.46C558.07 11.23 558.255 11.815 558.625 12.215C558.995 12.605 559.525 12.8 560.215 12.8C560.975 12.8 561.575 12.57 562.015 12.11C562.455 11.65 562.675 11 562.675 10.16V6.05H564.115ZM568.237 7.385C568.487 6.925 568.857 6.575 569.347 6.335C569.837 6.095 570.432 5.975 571.132 5.975V7.37C571.052 7.36 570.942 7.355 570.802 7.355C570.022 7.355 569.407 7.59 568.957 8.06C568.517 8.52 568.297 9.18 568.297 10.04V14H566.857V6.05H568.237V7.385ZM577.152 5.975C578.162 5.975 578.962 6.27 579.552 6.86C580.152 7.44 580.452 8.295 580.452 9.425V14H579.012V9.59C579.012 8.82 578.827 8.24 578.457 7.85C578.087 7.46 577.557 7.265 576.867 7.265C576.087 7.265 575.472 7.495 575.022 7.955C574.572 8.405 574.347 9.055 574.347 9.905V14H572.907V6.05H574.287V7.25C574.577 6.84 574.967 6.525 575.457 6.305C575.957 6.085 576.522 5.975 577.152 5.975ZM590.345 10.07C590.345 10.18 590.335 10.325 590.315 10.505H583.865C583.955 11.205 584.26 11.77 584.78 12.2C585.31 12.62 585.965 12.83 586.745 12.83C587.695 12.83 588.46 12.51 589.04 11.87L589.835 12.8C589.475 13.22 589.025 13.54 588.485 13.76C587.955 13.98 587.36 14.09 586.7 14.09C585.86 14.09 585.115 13.92 584.465 13.58C583.815 13.23 583.31 12.745 582.95 12.125C582.6 11.505 582.425 10.805 582.425 10.025C582.425 9.255 582.595 8.56 582.935 7.94C583.285 7.32 583.76 6.84 584.36 6.5C584.97 6.15 585.655 5.975 586.415 5.975C587.175 5.975 587.85 6.15 588.44 6.5C589.04 6.84 589.505 7.32 589.835 7.94C590.175 8.56 590.345 9.27 590.345 10.07ZM586.415 7.19C585.725 7.19 585.145 7.4 584.675 7.82C584.215 8.24 583.945 8.79 583.865 9.47H588.965C588.885 8.8 588.61 8.255 588.14 7.835C587.68 7.405 587.105 7.19 586.415 7.19ZM599.233 6.05L595.378 14.795C595.038 15.605 594.638 16.175 594.178 16.505C593.728 16.835 593.183 17 592.543 17C592.153 17 591.773 16.935 591.403 16.805C591.043 16.685 590.743 16.505 590.503 16.265L591.118 15.185C591.528 15.575 592.003 15.77 592.543 15.77C592.893 15.77 593.183 15.675 593.413 15.485C593.653 15.305 593.868 14.99 594.058 14.54L594.313 13.985L590.803 6.05H592.303L595.078 12.41L597.823 6.05H599.233ZM607.501 5.975C608.601 5.975 609.441 6.245 610.021 6.785C610.611 7.325 610.906 8.13 610.906 9.2V14H609.541V12.95C609.301 13.32 608.956 13.605 608.506 13.805C608.066 13.995 607.541 14.09 606.931 14.09C606.041 14.09 605.326 13.875 604.786 13.445C604.256 13.015 603.991 12.45 603.991 11.75C603.991 11.05 604.246 10.49 604.756 10.07C605.266 9.64 606.076 9.425 607.186 9.425H609.466V9.14C609.466 8.52 609.286 8.045 608.926 7.715C608.566 7.385 608.036 7.22 607.336 7.22C606.866 7.22 606.406 7.3 605.956 7.46C605.506 7.61 605.126 7.815 604.816 8.075L604.216 6.995C604.626 6.665 605.116 6.415 605.686 6.245C606.256 6.065 606.861 5.975 607.501 5.975ZM607.171 12.98C607.721 12.98 608.196 12.86 608.596 12.62C608.996 12.37 609.286 12.02 609.466 11.57V10.46H607.246C606.026 10.46 605.416 10.87 605.416 11.69C605.416 12.09 605.571 12.405 605.881 12.635C606.191 12.865 606.621 12.98 607.171 12.98ZM617.816 5.975C618.826 5.975 619.626 6.27 620.216 6.86C620.816 7.44 621.116 8.295 621.116 9.425V14H619.676V9.59C619.676 8.82 619.491 8.24 619.121 7.85C618.751 7.46 618.221 7.265 617.531 7.265C616.751 7.265 616.136 7.495 615.686 7.955C615.236 8.405 615.011 9.055 615.011 9.905V14H613.571V2.87H615.011V7.175C615.311 6.795 615.701 6.5 616.181 6.29C616.671 6.08 617.216 5.975 617.816 5.975ZM631.009 10.07C631.009 10.18 630.999 10.325 630.979 10.505H624.529C624.619 11.205 624.924 11.77 625.444 12.2C625.974 12.62 626.629 12.83 627.409 12.83C628.359 12.83 629.124 12.51 629.704 11.87L630.499 12.8C630.139 13.22 629.689 13.54 629.149 13.76C628.619 13.98 628.024 14.09 627.364 14.09C626.524 14.09 625.779 13.92 625.129 13.58C624.479 13.23 623.974 12.745 623.614 12.125C623.264 11.505 623.089 10.805 623.089 10.025C623.089 9.255 623.259 8.56 623.599 7.94C623.949 7.32 624.424 6.84 625.024 6.5C625.634 6.15 626.319 5.975 627.079 5.975C627.839 5.975 628.514 6.15 629.104 6.5C629.704 6.84 630.169 7.32 630.499 7.94C630.839 8.56 631.009 9.27 631.009 10.07ZM627.079 7.19C626.389 7.19 625.809 7.4 625.339 7.82C624.879 8.24 624.609 8.79 624.529 9.47H629.629C629.549 8.8 629.274 8.255 628.804 7.835C628.344 7.405 627.769 7.19 627.079 7.19ZM635.684 5.975C636.784 5.975 637.624 6.245 638.204 6.785C638.794 7.325 639.089 8.13 639.089 9.2V14H637.724V12.95C637.484 13.32 637.139 13.605 636.689 13.805C636.249 13.995 635.724 14.09 635.114 14.09C634.224 14.09 633.509 13.875 632.969 13.445C632.439 13.015 632.174 12.45 632.174 11.75C632.174 11.05 632.429 10.49 632.939 10.07C633.449 9.64 634.259 9.425 635.369 9.425H637.649V9.14C637.649 8.52 637.469 8.045 637.109 7.715C636.749 7.385 636.219 7.22 635.519 7.22C635.049 7.22 634.589 7.3 634.139 7.46C633.689 7.61 633.309 7.815 632.999 8.075L632.399 6.995C632.809 6.665 633.299 6.415 633.869 6.245C634.439 6.065 635.044 5.975 635.684 5.975ZM635.354 12.98C635.904 12.98 636.379 12.86 636.779 12.62C637.179 12.37 637.469 12.02 637.649 11.57V10.46H635.429C634.209 10.46 633.599 10.87 633.599 11.69C633.599 12.09 633.754 12.405 634.064 12.635C634.374 12.865 634.804 12.98 635.354 12.98ZM649.298 2.87V14H647.918V12.74C647.598 13.18 647.193 13.515 646.703 13.745C646.213 13.975 645.673 14.09 645.083 14.09C644.313 14.09 643.623 13.92 643.013 13.58C642.403 13.24 641.923 12.765 641.573 12.155C641.233 11.535 641.063 10.825 641.063 10.025C641.063 9.225 641.233 8.52 641.573 7.91C641.923 7.3 642.403 6.825 643.013 6.485C643.623 6.145 644.313 5.975 645.083 5.975C645.653 5.975 646.178 6.085 646.658 6.305C647.138 6.515 647.538 6.83 647.858 7.25V2.87H649.298ZM645.203 12.83C645.703 12.83 646.158 12.715 646.568 12.485C646.978 12.245 647.298 11.915 647.528 11.495C647.758 11.065 647.873 10.575 647.873 10.025C647.873 9.475 647.758 8.99 647.528 8.57C647.298 8.14 646.978 7.81 646.568 7.58C646.158 7.35 645.703 7.235 645.203 7.235C644.693 7.235 644.233 7.35 643.823 7.58C643.423 7.81 643.103 8.14 642.863 8.57C642.633 8.99 642.518 9.475 642.518 10.025C642.518 10.575 642.633 11.065 642.863 11.495C643.103 11.915 643.423 12.245 643.823 12.485C644.233 12.715 644.693 12.83 645.203 12.83ZM652.368 14.09C652.088 14.09 651.848 13.995 651.648 13.805C651.448 13.605 651.348 13.355 651.348 13.055C651.348 12.765 651.448 12.525 651.648 12.335C651.848 12.135 652.088 12.035 652.368 12.035C652.648 12.035 652.883 12.13 653.073 12.32C653.263 12.51 653.358 12.755 653.358 13.055C653.358 13.355 653.258 13.605 653.058 13.805C652.868 13.995 652.638 14.09 652.368 14.09ZM655.766 14.09C655.486 14.09 655.246 13.995 655.046 13.805C654.846 13.605 654.746 13.355 654.746 13.055C654.746 12.765 654.846 12.525 655.046 12.335C655.246 12.135 655.486 12.035 655.766 12.035C656.046 12.035 656.281 12.13 656.471 12.32C656.661 12.51 656.756 12.755 656.756 13.055C656.756 13.355 656.656 13.605 656.456 13.805C656.266 13.995 656.036 14.09 655.766 14.09ZM659.165 14.09C658.885 14.09 658.645 13.995 658.445 13.805C658.245 13.605 658.145 13.355 658.145 13.055C658.145 12.765 658.245 12.525 658.445 12.335C658.645 12.135 658.885 12.035 659.165 12.035C659.445 12.035 659.68 12.13 659.87 12.32C660.06 12.51 660.155 12.755 660.155 13.055C660.155 13.355 660.055 13.605 659.855 13.805C659.665 13.995 659.435 14.09 659.165 14.09Z" fill="#BBBBBB" fill-opacity="0.8"/>
<path d="M539.754 39.5L536.244 50H534.669L531.804 41.615L528.939 50H527.334L523.824 39.5H525.369L528.204 48.035L531.159 39.5H532.539L535.434 48.08L538.329 39.5H539.754ZM545.843 41.975C546.853 41.975 547.653 42.27 548.243 42.86C548.843 43.44 549.143 44.295 549.143 45.425V50H547.703V45.59C547.703 44.82 547.518 44.24 547.148 43.85C546.778 43.46 546.248 43.265 545.558 43.265C544.778 43.265 544.163 43.495 543.713 43.955C543.263 44.405 543.038 45.055 543.038 45.905V50H541.598V38.87H543.038V43.175C543.338 42.795 543.728 42.5 544.208 42.29C544.698 42.08 545.243 41.975 545.843 41.975ZM554.703 41.975C555.803 41.975 556.643 42.245 557.223 42.785C557.813 43.325 558.108 44.13 558.108 45.2V50H556.743V48.95C556.503 49.32 556.158 49.605 555.708 49.805C555.268 49.995 554.743 50.09 554.133 50.09C553.243 50.09 552.528 49.875 551.988 49.445C551.458 49.015 551.193 48.45 551.193 47.75C551.193 47.05 551.448 46.49 551.958 46.07C552.468 45.64 553.278 45.425 554.388 45.425H556.668V45.14C556.668 44.52 556.488 44.045 556.128 43.715C555.768 43.385 555.238 43.22 554.538 43.22C554.068 43.22 553.608 43.3 553.158 43.46C552.708 43.61 552.328 43.815 552.018 44.075L551.418 42.995C551.828 42.665 552.318 42.415 552.888 42.245C553.458 42.065 554.063 41.975 554.703 41.975ZM554.373 48.98C554.923 48.98 555.398 48.86 555.798 48.62C556.198 48.37 556.488 48.02 556.668 47.57V46.46H554.448C553.228 46.46 552.618 46.87 552.618 47.69C552.618 48.09 552.773 48.405 553.083 48.635C553.393 48.865 553.823 48.98 554.373 48.98ZM565.243 49.535C565.033 49.715 564.773 49.855 564.463 49.955C564.153 50.045 563.833 50.09 563.503 50.09C562.703 50.09 562.083 49.875 561.643 49.445C561.203 49.015 560.983 48.4 560.983 47.6V43.235H559.633V42.05H560.983V40.31H562.423V42.05H564.703V43.235H562.423V47.54C562.423 47.97 562.528 48.3 562.738 48.53C562.958 48.76 563.268 48.875 563.668 48.875C564.108 48.875 564.483 48.75 564.793 48.5L565.243 49.535ZM583.042 42.05L580.072 50H578.692L576.397 43.97L574.072 50H572.692L569.737 42.05H571.102L573.412 48.38L575.812 42.05H577.027L579.382 48.41L581.752 42.05H583.042ZM584.504 42.05H585.944V50H584.504V42.05ZM585.224 40.52C584.944 40.52 584.709 40.43 584.519 40.25C584.339 40.07 584.249 39.85 584.249 39.59C584.249 39.33 584.339 39.11 584.519 38.93C584.709 38.74 584.944 38.645 585.224 38.645C585.504 38.645 585.734 38.735 585.914 38.915C586.104 39.085 586.199 39.3 586.199 39.56C586.199 39.83 586.104 40.06 585.914 40.25C585.734 40.43 585.504 40.52 585.224 40.52ZM588.693 38.87H590.133V50H588.693V38.87ZM592.883 38.87H594.323V50H592.883V38.87ZM608.135 42.05L604.28 50.795C603.94 51.605 603.54 52.175 603.08 52.505C602.63 52.835 602.085 53 601.445 53C601.055 53 600.675 52.935 600.305 52.805C599.945 52.685 599.645 52.505 599.405 52.265L600.02 51.185C600.43 51.575 600.905 51.77 601.445 51.77C601.795 51.77 602.085 51.675 602.315 51.485C602.555 51.305 602.77 50.99 602.96 50.54L603.215 49.985L599.705 42.05H601.205L603.98 48.41L606.725 42.05H608.135ZM612.665 50.09C611.875 50.09 611.165 49.915 610.535 49.565C609.905 49.215 609.41 48.735 609.05 48.125C608.7 47.505 608.525 46.805 608.525 46.025C608.525 45.245 608.7 44.55 609.05 43.94C609.41 43.32 609.905 42.84 610.535 42.5C611.165 42.15 611.875 41.975 612.665 41.975C613.455 41.975 614.16 42.15 614.78 42.5C615.41 42.84 615.9 43.32 616.25 43.94C616.61 44.55 616.79 45.245 616.79 46.025C616.79 46.805 616.61 47.505 616.25 48.125C615.9 48.735 615.41 49.215 614.78 49.565C614.16 49.915 613.455 50.09 612.665 50.09ZM612.665 48.83C613.175 48.83 613.63 48.715 614.03 48.485C614.44 48.245 614.76 47.915 614.99 47.495C615.22 47.065 615.335 46.575 615.335 46.025C615.335 45.475 615.22 44.99 614.99 44.57C614.76 44.14 614.44 43.81 614.03 43.58C613.63 43.35 613.175 43.235 612.665 43.235C612.155 43.235 611.695 43.35 611.285 43.58C610.885 43.81 610.565 44.14 610.325 44.57C610.095 44.99 609.98 45.475 609.98 46.025C609.98 46.575 610.095 47.065 610.325 47.495C610.565 47.915 610.885 48.245 611.285 48.485C611.695 48.715 612.155 48.83 612.665 48.83ZM626.191 42.05V50H624.826V48.8C624.536 49.21 624.151 49.53 623.671 49.76C623.201 49.98 622.686 50.09 622.126 50.09C621.066 50.09 620.231 49.8 619.621 49.22C619.011 48.63 618.706 47.765 618.706 46.625V42.05H620.146V46.46C620.146 47.23 620.331 47.815 620.701 48.215C621.071 48.605 621.601 48.8 622.291 48.8C623.051 48.8 623.651 48.57 624.091 48.11C624.531 47.65 624.751 47 624.751 46.16V42.05H626.191ZM637.431 49.535C637.221 49.715 636.961 49.855 636.651 49.955C636.341 50.045 636.021 50.09 635.691 50.09C634.891 50.09 634.271 49.875 633.831 49.445C633.391 49.015 633.171 48.4 633.171 47.6V43.235H631.821V42.05H633.171V40.31H634.611V42.05H636.891V43.235H634.611V47.54C634.611 47.97 634.716 48.3 634.926 48.53C635.146 48.76 635.456 48.875 635.856 48.875C636.296 48.875 636.671 48.75 636.981 48.5L637.431 49.535ZM642.067 41.975C643.167 41.975 644.007 42.245 644.587 42.785C645.177 43.325 645.472 44.13 645.472 45.2V50H644.107V48.95C643.867 49.32 643.522 49.605 643.072 49.805C642.632 49.995 642.107 50.09 641.497 50.09C640.607 50.09 639.892 49.875 639.352 49.445C638.822 49.015 638.557 48.45 638.557 47.75C638.557 47.05 638.812 46.49 639.322 46.07C639.832 45.64 640.642 45.425 641.752 45.425H644.032V45.14C644.032 44.52 643.852 44.045 643.492 43.715C643.132 43.385 642.602 43.22 641.902 43.22C641.432 43.22 640.972 43.3 640.522 43.46C640.072 43.61 639.692 43.815 639.382 44.075L638.782 42.995C639.192 42.665 639.682 42.415 640.252 42.245C640.822 42.065 641.427 41.975 642.067 41.975ZM641.737 48.98C642.287 48.98 642.762 48.86 643.162 48.62C643.562 48.37 643.852 48.02 644.032 47.57V46.46H641.812C640.592 46.46 639.982 46.87 639.982 47.69C639.982 48.09 640.137 48.405 640.447 48.635C640.757 48.865 641.187 48.98 641.737 48.98ZM651.226 46.295L649.576 47.825V50H648.136V38.87H649.576V46.01L653.911 42.05H655.651L652.306 45.335L655.981 50H654.211L651.226 46.295ZM664.228 46.07C664.228 46.18 664.218 46.325 664.198 46.505H657.748C657.838 47.205 658.143 47.77 658.663 48.2C659.193 48.62 659.848 48.83 660.628 48.83C661.578 48.83 662.343 48.51 662.923 47.87L663.718 48.8C663.358 49.22 662.908 49.54 662.368 49.76C661.838 49.98 661.243 50.09 660.583 50.09C659.743 50.09 658.998 49.92 658.348 49.58C657.698 49.23 657.193 48.745 656.833 48.125C656.483 47.505 656.308 46.805 656.308 46.025C656.308 45.255 656.478 44.56 656.818 43.94C657.168 43.32 657.643 42.84 658.243 42.5C658.853 42.15 659.538 41.975 660.298 41.975C661.058 41.975 661.733 42.15 662.323 42.5C662.923 42.84 663.388 43.32 663.718 43.94C664.058 44.56 664.228 45.27 664.228 46.07ZM660.298 43.19C659.608 43.19 659.028 43.4 658.558 43.82C658.098 44.24 657.828 44.79 657.748 45.47H662.848C662.768 44.8 662.493 44.255 662.023 43.835C661.563 43.405 660.988 43.19 660.298 43.19ZM682.286 42.05L679.316 50H677.936L675.641 43.97L673.316 50H671.936L668.981 42.05H670.346L672.656 48.38L675.056 42.05H676.271L678.626 48.41L680.996 42.05H682.286ZM683.747 42.05H685.187V50H683.747V42.05ZM684.467 40.52C684.187 40.52 683.952 40.43 683.762 40.25C683.582 40.07 683.492 39.85 683.492 39.59C683.492 39.33 683.582 39.11 683.762 38.93C683.952 38.74 684.187 38.645 684.467 38.645C684.747 38.645 684.977 38.735 685.157 38.915C685.347 39.085 685.442 39.3 685.442 39.56C685.442 39.83 685.347 40.06 685.157 40.25C684.977 40.43 684.747 40.52 684.467 40.52ZM692.406 49.535C692.196 49.715 691.936 49.855 691.626 49.955C691.316 50.045 690.996 50.09 690.666 50.09C689.866 50.09 689.246 49.875 688.806 49.445C688.366 49.015 688.146 48.4 688.146 47.6V43.235H686.796V42.05H688.146V40.31H689.586V42.05H691.866V43.235H689.586V47.54C689.586 47.97 689.691 48.3 689.901 48.53C690.121 48.76 690.431 48.875 690.831 48.875C691.271 48.875 691.646 48.75 691.956 48.5L692.406 49.535ZM698.392 41.975C699.402 41.975 700.202 42.27 700.792 42.86C701.392 43.44 701.692 44.295 701.692 45.425V50H700.252V45.59C700.252 44.82 700.067 44.24 699.697 43.85C699.327 43.46 698.797 43.265 698.107 43.265C697.327 43.265 696.712 43.495 696.262 43.955C695.812 44.405 695.587 45.055 695.587 45.905V50H694.147V38.87H695.587V43.175C695.887 42.795 696.277 42.5 696.757 42.29C697.247 42.08 697.792 41.975 698.392 41.975ZM715.421 42.05L711.566 50.795C711.226 51.605 710.826 52.175 710.366 52.505C709.916 52.835 709.371 53 708.731 53C708.341 53 707.961 52.935 707.591 52.805C707.231 52.685 706.931 52.505 706.691 52.265L707.306 51.185C707.716 51.575 708.191 51.77 708.731 51.77C709.081 51.77 709.371 51.675 709.601 51.485C709.841 51.305 710.056 50.99 710.246 50.54L710.501 49.985L706.991 42.05H708.491L711.266 48.41L714.011 42.05H715.421ZM719.95 50.09C719.16 50.09 718.45 49.915 717.82 49.565C717.19 49.215 716.695 48.735 716.335 48.125C715.985 47.505 715.81 46.805 715.81 46.025C715.81 45.245 715.985 44.55 716.335 43.94C716.695 43.32 717.19 42.84 717.82 42.5C718.45 42.15 719.16 41.975 719.95 41.975C720.74 41.975 721.445 42.15 722.065 42.5C722.695 42.84 723.185 43.32 723.535 43.94C723.895 44.55 724.075 45.245 724.075 46.025C724.075 46.805 723.895 47.505 723.535 48.125C723.185 48.735 722.695 49.215 722.065 49.565C721.445 49.915 720.74 50.09 719.95 50.09ZM719.95 48.83C720.46 48.83 720.915 48.715 721.315 48.485C721.725 48.245 722.045 47.915 722.275 47.495C722.505 47.065 722.62 46.575 722.62 46.025C722.62 45.475 722.505 44.99 722.275 44.57C722.045 44.14 721.725 43.81 721.315 43.58C720.915 43.35 720.46 43.235 719.95 43.235C719.44 43.235 718.98 43.35 718.57 43.58C718.17 43.81 717.85 44.14 717.61 44.57C717.38 44.99 717.265 45.475 717.265 46.025C717.265 46.575 717.38 47.065 717.61 47.495C717.85 47.915 718.17 48.245 718.57 48.485C718.98 48.715 719.44 48.83 719.95 48.83ZM733.476 42.05V50H732.111V48.8C731.821 49.21 731.436 49.53 730.956 49.76C730.486 49.98 729.971 50.09 729.411 50.09C728.351 50.09 727.516 49.8 726.906 49.22C726.296 48.63 725.991 47.765 725.991 46.625V42.05H727.431V46.46C727.431 47.23 727.616 47.815 727.986 48.215C728.356 48.605 728.886 48.8 729.576 48.8C730.336 48.8 730.936 48.57 731.376 48.11C731.816 47.65 732.036 47 732.036 46.16V42.05H733.476ZM738.478 46.685C738.478 46.285 738.543 45.935 738.673 45.635C738.813 45.325 738.978 45.065 739.168 44.855C739.368 44.645 739.628 44.395 739.948 44.105C740.348 43.755 740.643 43.455 740.833 43.205C741.023 42.945 741.118 42.635 741.118 42.275C741.118 41.785 740.928 41.395 740.548 41.105C740.168 40.805 739.643 40.655 738.973 40.655C737.803 40.655 736.908 41.05 736.288 41.84L735.193 41.06C735.613 40.52 736.148 40.105 736.798 39.815C737.458 39.525 738.218 39.38 739.078 39.38C740.168 39.38 741.033 39.62 741.673 40.1C742.313 40.57 742.633 41.22 742.633 42.05C742.633 42.46 742.563 42.825 742.423 43.145C742.293 43.455 742.133 43.715 741.943 43.925C741.753 44.135 741.498 44.385 741.178 44.675C740.768 45.045 740.463 45.37 740.263 45.65C740.073 45.93 739.978 46.275 739.978 46.685H738.478ZM739.243 50.09C738.963 50.09 738.728 50 738.538 49.82C738.358 49.63 738.268 49.4 738.268 49.13C738.268 48.86 738.358 48.635 738.538 48.455C738.728 48.265 738.963 48.17 739.243 48.17C739.523 48.17 739.753 48.265 739.933 48.455C740.113 48.635 740.203 48.86 740.203 49.13C740.203 49.4 740.108 49.63 739.918 49.82C739.738 50 739.513 50.09 739.243 50.09Z" fill="#BBBBBB" fill-opacity="0.8"/>
<path fill-rule="evenodd" clip-rule="evenodd" d="M0 74.015L22 89.0526C44.6667 104.09 88.6667 134.165 133.333 143.188C178 152.211 222 140.18 266.667 119.128C311.333 98.0752 355.333 68 400 68C444.667 68 488.667 98.0752 533.333 113.113C578 128.15 622 128.15 666.667 131.158C711.333 134.165 755.333 140.18 778 143.188L800 146.195V182.286H778C755.333 182.286 711.333 182.286 666.667 182.286C622 182.286 578 182.286 533.333 182.286C488.667 182.286 444.667 182.286 400 182.286C355.333 182.286 311.333 182.286 266.667 182.286C222 182.286 178 182.286 133.333 182.286C88.6667 182.286 44.6667 182.286 22 182.286H0V74.015Z" fill="#EBEBEB" fill-opacity="0.5"/>
</svg>
