<svg width="400" height="400" viewBox="0 0 400 400" fill="none" xmlns="http://www.w3.org/2000/svg">
<g clip-path="url(#clip0)">
<path opacity="0.2" fill-rule="evenodd" clip-rule="evenodd" d="M103.661 -9.86412C105.159 -10.6067 107.155 -9.74546 106.322 -7.78227C105.43 -5.67999 102.132 -5.65402 100.269 -5.69569C100.455 -5.70546 101.056 -7.63328 101.261 -7.9246C101.867 -8.78395 102.74 -9.40675 103.661 -9.86412ZM86.4169 28.441C85.8879 28.8933 86.3739 28.4834 86.4169 28.441V28.441ZM105.402 -0.103502C106.297 0.574255 106.339 1.77167 105.607 2.58255C104.735 3.5479 103.144 3.51357 101.956 3.42015C101.419 3.37784 98.5503 3.1518 99.2306 2.68652C99.1782 2.70611 99.069 2.75365 98.952 2.81825C98.889 3.04595 98.8228 3.27285 98.7539 3.49873C98.7707 3.50849 98.7851 3.51897 98.8031 3.52867C98.7836 3.52021 98.7699 3.51105 98.7527 3.50247C98.0616 5.76019 97.0785 7.91008 95.7917 9.92158C96.2728 9.73372 96.7712 9.59144 97.2766 9.52797C98.7734 9.33975 101.921 10.49 100.246 12.4643C98.6399 14.357 96.1419 12.3286 94.3203 12.0496C92.5519 14.4929 90.6025 16.8346 88.5595 19.0981C88.6846 19.1369 88.7944 19.2177 88.8573 19.3435C89.6766 18.9315 90.5304 18.3424 91.2886 18.1826C92.3826 17.9524 94.6258 17.812 95.4521 18.7812C96.4684 19.9731 95.3778 20.9422 94.1763 21.1714C92.434 21.504 90.1539 20.6622 88.478 20.0935C88.2862 20.1272 88.0769 20.0717 87.9519 19.9199C87.9149 19.9079 87.8779 19.8961 87.8418 19.8846C85.773 22.1371 83.6251 24.3153 81.4903 26.4458C81.5131 26.4446 81.5358 26.4432 81.5595 26.442C82.1162 26.0802 82.7134 25.7832 83.3606 25.6275C84.8577 25.2654 86.619 25.2628 87.8333 26.3349C89.0428 27.4024 89.4706 29.2702 88.2181 30.4702C85.711 32.8723 82.0219 27.4001 80.758 27.1723C78.5886 29.3146 76.2948 31.3164 73.965 33.2778C74.2295 33.1979 74.5008 33.1391 74.7811 33.1126C77.0648 32.895 82.4234 35.6649 79.6195 38.3942C77.1761 40.7726 74.3517 36.1987 72.3844 34.5995C70.189 36.4277 67.9816 38.2433 65.8361 40.1296C67.0059 39.8214 68.1363 39.7755 69.3899 40.1501C70.6871 40.5383 72.7801 41.5074 71.9591 43.2426C71.124 45.0072 68.6105 44.2057 67.3014 43.6462C66.5874 43.3411 65.1561 42.3108 63.8992 41.8772C60.4755 45.0785 57.5096 48.6041 55.2635 52.7567C53.8613 55.3495 52.7968 58.1193 52.047 60.966C51.5685 62.7829 50.6258 65.8347 50.813 68.1991C49.9174 63.4666 51.5441 57.7813 53.2954 53.5499C54.9057 49.6589 57.3144 46.2426 60.1353 43.1672C59.4289 41.0601 53.4755 38.0236 57.0364 36.0639C58.9274 35.0277 60.8627 36.7445 61.275 38.5636C61.5582 39.8136 61.125 41.3846 60.6654 42.5982C61.5528 41.6607 62.4752 40.7533 63.4257 39.876C64.7393 38.6635 66.0843 37.4862 67.4421 36.3236C65.2066 34.2439 63.093 28.2961 66.0923 27.3217C70.5213 25.8869 68.3849 34.0024 68.0752 35.5233C67.9875 35.5285 67.9191 35.5023 67.8689 35.4461C67.8937 35.5853 67.9225 35.7342 67.9575 35.8844C70.5564 33.6709 73.1937 31.501 75.7443 29.2346C75.5147 29.0666 75.1499 28.4244 74.8631 28.0826C74.2158 27.312 73.5965 26.5071 73.1441 25.6056C72.4295 24.1809 71.7407 21.9081 73.6375 21.0689C75.7003 20.1546 76.679 22.725 76.6926 24.2587C76.7019 25.3194 76.4097 26.3272 76.2572 27.3669C76.2095 27.6912 76.3917 29.1527 75.946 28.5242C75.9669 28.756 75.9698 28.9239 75.9593 29.0429C76.4173 28.634 76.8716 28.2207 77.3231 27.8044C77.3023 27.7518 77.2868 27.6946 77.2833 27.6281C77.2594 27.1709 77.724 26.9946 78.0497 27.1283C78.6455 26.5676 79.2355 25.9998 79.815 25.4207C81.0431 24.1939 82.289 22.9321 83.5264 21.6434C83.2582 21.4153 83.3651 21.0991 83.1143 20.8569C82.8639 20.6152 82.3705 20.4817 82.076 20.2573C81.3354 19.6924 80.7214 18.8692 80.2775 18.059C79.5445 16.7202 78.5979 13.9115 80.7413 13.2722C82.9507 12.6122 84.0705 15.3157 84.2117 17.0063C84.2392 17.3338 83.99 20.2851 83.7999 21.3569C86.0895 18.9619 88.3414 16.4772 90.3818 13.9494C89.7635 13.944 88.0113 12.6904 87.6571 12.3483C86.7929 11.5138 85.4194 9.66961 86.9358 8.69256C88.284 7.82596 89.9447 9.0793 90.5204 10.2979C90.615 10.4986 90.9481 12.3665 90.9738 13.2047C91.8183 12.1327 92.6239 11.0545 93.3734 9.9728C93.8733 9.25367 94.3405 8.51553 94.7776 7.76174C94.6725 7.70277 94.5736 7.59992 94.4803 7.47199C92.2326 7.0953 89.3684 3.62332 92.0094 2.41346C93.2668 1.83817 94.6295 3.02368 95.2449 3.99454C95.3709 4.19316 95.5747 5.19197 95.7406 5.97979C96.9984 3.4827 97.9599 0.839261 98.6921 -1.87095C98.4964 -1.91898 98.3307 -2.06693 98.309 -2.32155C97.218 -2.93717 96.3564 -3.44982 95.5952 -4.63432C95.1223 -5.37004 94.2707 -7.05108 95.6617 -7.46028C97.4717 -7.9927 98.6072 -5.25568 98.7545 -3.90734C98.7717 -3.75084 98.7708 -3.29561 98.7646 -2.87844C98.8275 -2.88696 98.891 -2.88603 98.9533 -2.87516C99.3698 -4.55334 99.7024 -6.25307 99.9672 -7.95562C98.9795 -8.26998 98.8113 -13.4076 99.4694 -14.1394C100.94 -15.7782 101.976 -13.4125 101.897 -12.1619C101.804 -10.6873 101.128 -9.34562 100.324 -8.15479C100.238 -8.02868 100.263 -8.03481 100.24 -8.21041C100.228 -8.1236 100.199 -8.05953 100.155 -8.0131C100.196 -7.23694 100.277 -6.44231 100.237 -5.75545C100.125 -3.78847 99.8929 -1.80997 99.556 0.131799C99.474 0.604053 99.3802 1.07248 99.275 1.53685C100.069 0.866562 101.14 0.270846 101.559 0.0845131C102.646 -0.398614 104.322 -0.92051 105.402 -0.103502ZM50.6351 68.0124C50.6876 68.6444 50.8435 69.2213 51.1504 69.6939C50.9251 69.1536 50.7561 68.5911 50.6351 68.0124Z" fill="#D2D2D2"/>
<g opacity="0.5">
<path opacity="0.5" fill-rule="evenodd" clip-rule="evenodd" d="M90.0151 54.54C91.8075 51.9842 95.1337 45.4935 97.6565 44.5802C99.2814 43.992 98.8076 50.0766 98.8277 51.2368C98.9058 55.7255 98.4688 60.1857 97.9292 64.6367C96.957 72.664 93.7779 79.8129 89.4176 86.6449C87.1738 90.1604 84.5421 93.7186 80.897 95.9121C79.2192 96.9222 77.2004 97.0914 75.5434 97.9617C73.6136 98.9749 74.6646 98.1558 73.7949 100.167C72.5872 102.959 72.2009 106.56 71.6421 109.54C69.0763 123.215 62.8647 195.507 63.9416 209.417C64.0372 210.65 62.318 210.945 62.2322 209.44C61.776 201.459 65.7234 146.191 67.7149 128.117C69.7064 110.042 71.7217 94.0747 73.7424 87.8216C76.1939 80.2352 80.6214 71.112 84.307 64.0374C86.0189 60.7506 87.8849 57.5772 90.0151 54.54Z" fill="#8B8B8B"/>
<path opacity="0.5" fill-rule="evenodd" clip-rule="evenodd" d="M103.321 143.188C107.985 139.763 113.033 146.226 108.813 149.651C106.48 151.544 104.04 150.87 102.667 149.293C101.776 150.379 100.941 151.515 100.14 152.475C97.6971 155.399 95.3885 158.393 93.1821 161.457C88.5987 167.822 84.6708 174.547 80.5639 181.149C76.511 187.664 72.4904 194.213 68.8169 200.894C65.7048 206.554 61.5569 213.212 60.4915 219.417C62.108 206.257 68.2422 193.608 75.547 182.007C82.7923 170.501 91.1072 157.935 102.326 148.854C101.184 147.175 101.152 144.779 103.321 143.188Z" fill="#D2D2D2"/>
<path opacity="0.5" fill-rule="evenodd" clip-rule="evenodd" d="M14.816 111.093C17.426 111.603 21.6908 117.507 23.8422 119.757C26.3991 122.43 28.7187 125.28 30.9053 128.265C35.6126 134.691 39.8224 141.523 43.4021 148.648C49.2381 160.263 53.9134 172.186 57.3066 184.833C59.3836 192.576 60.7284 200.6 61.5254 208.569C61.6759 210.071 63.2515 221.658 60.9812 221.97C58.9393 222.251 59.5699 213.172 59.4714 211.937C58.3579 198.005 55.0221 184.448 50.3821 171.316C49.3714 168.455 48.4324 164.952 46.8161 162.377C45.6522 160.523 46.8078 161.17 44.7623 160.468C43.0059 159.865 41.0047 160.012 39.2061 159.274C35.2989 157.672 32.1703 154.561 29.4278 151.432C24.0983 145.352 19.875 138.773 17.6735 130.981C16.4523 126.661 15.3301 122.316 14.7073 117.862C14.5462 116.711 13.1349 110.764 14.816 111.093Z" fill="#8B8B8B"/>
<path opacity="0.5" fill-rule="evenodd" clip-rule="evenodd" d="M25.1159 12.8576C34.9473 29.9077 43.0264 48.6368 48.2431 67.6066C51.4038 79.1001 53.6141 90.8942 55.8103 102.603C59.2107 120.733 62.4271 138.861 63.342 157.313C64.2624 175.872 66.0826 197.277 60.0056 215.152C63.0411 197.004 60.1511 177.687 59.6394 159.426C59.3948 150.709 58.6862 142.077 57.7567 133.411C56.8546 125.004 55.381 116.637 54.0086 108.296C53.3402 104.234 52.6381 100.178 51.9233 96.1242C51.7099 94.9148 51.6198 91.3259 50.8526 90.4997C50.0804 89.668 46.1407 89.329 44.9038 88.7188C42.4131 87.4897 40.0703 85.7439 37.9968 83.8992C34.022 80.363 30.5641 75.7425 27.8348 71.1878C21.52 60.6489 18.9954 47.7875 19.123 35.5821C19.1475 33.2123 22.9586 7.69401 21.428 7.3426C21.5202 7.23468 21.6073 7.12324 21.6895 7.00732C22.8483 8.9475 23.9854 10.9008 25.1159 12.8576Z" fill="#ABABAB"/>
<path opacity="0.5" fill-rule="evenodd" clip-rule="evenodd" d="M131.228 74.3497C131.38 74.1309 132.367 72.6092 131.87 72.7064C132.882 72.5084 130.478 74.3847 133 73.2334C131.802 74.3644 132.493 75.8337 132.509 77.3559C132.536 79.8273 132.122 82.2784 131.657 84.6968C130.921 88.5196 129.825 92.2364 128.235 95.792C124.769 103.54 118.883 111 111.895 115.844C108.445 118.236 105.064 119.05 101.13 120.151C98.6446 120.847 98.4475 122.132 97.1284 124.544C94.3821 129.567 91.6847 134.571 89.2627 139.764C86.3707 145.964 83.5633 152.17 80.9151 158.48C71.9936 179.732 64.7324 201.749 60.919 224.535C60.8257 211.107 63.9319 197.278 67.8502 184.479C70.7044 175.154 74.4201 166.165 78.3832 157.267C79.3435 155.112 80.7989 152.339 81.2067 149.959C81.4922 148.291 80.6192 146.688 80.2195 144.931C78.6611 138.091 78.7727 130.427 80.1411 123.55C81.65 115.967 86.0135 112.448 93.3949 111.374C96.0944 110.981 99.5256 111.125 102.001 109.974C104.698 108.72 105.81 104.6 107.344 101.955C111.463 94.8511 116.357 88.0377 121.976 82.0517C123.532 80.3941 125.206 78.8649 126.981 77.4475C128.1 76.5531 130.465 75.4513 131.228 74.3497Z" fill="#ABABAB"/>
<path opacity="0.5" fill-rule="evenodd" clip-rule="evenodd" d="M48.4598 210.034H74.6558C75.8336 210.034 76.7885 210.989 76.7885 212.166C76.7885 212.27 76.7808 212.374 76.7656 212.477L74.7409 226.207C74.1237 230.392 70.5322 233.493 66.3017 233.493H56.814C52.5834 233.493 48.9919 230.392 48.3747 226.207L46.35 212.477C46.1782 211.312 46.9835 210.228 48.1487 210.057C48.2517 210.041 48.3557 210.034 48.4598 210.034Z" fill="#D2D2D2"/>
</g>
<path d="M282.502 49.4298C296.642 66.8984 302.203 91.417 297.19 113.507C292.137 135.597 276.471 155.259 255.203 166.814C233.974 178.329 207.184 181.736 187.404 171.788C167.625 161.8 154.857 138.418 151.136 115.035C147.454 91.652 152.781 68.2301 166.293 50.9182C179.767 33.6063 201.426 22.4045 223.556 22.0129C245.724 21.582 268.363 32.0005 282.502 49.4298Z" fill="#F4F4F4"/>
<path opacity="0.2" fill-rule="evenodd" clip-rule="evenodd" d="M364.661 17.1359C366.159 16.3933 368.155 17.2545 367.322 19.2177C366.43 21.32 363.132 21.346 361.269 21.3043C361.455 21.2945 362.056 19.3667 362.261 19.0754C362.867 18.216 363.74 17.5933 364.661 17.1359ZM347.417 55.441C346.888 55.8933 347.374 55.4834 347.417 55.441V55.441ZM366.402 26.8965C367.297 27.5743 367.339 28.7717 366.607 29.5826C365.735 30.5479 364.144 30.5136 362.956 30.4202C362.419 30.3778 359.55 30.1518 360.231 29.6865C360.178 29.7061 360.069 29.7537 359.952 29.8183C359.889 30.046 359.823 30.2728 359.754 30.4987C359.771 30.5085 359.785 30.519 359.803 30.5287C359.784 30.5202 359.77 30.5111 359.753 30.5025C359.062 32.7602 358.079 34.9101 356.792 36.9216C357.273 36.7337 357.771 36.5914 358.277 36.528C359.773 36.3398 362.921 37.49 361.246 39.4643C359.64 41.357 357.142 39.3286 355.32 39.0496C353.552 41.4929 351.602 43.8346 349.56 46.0981C349.685 46.1369 349.794 46.2177 349.857 46.3435C350.677 45.9315 351.53 45.3424 352.289 45.1826C353.383 44.9524 355.626 44.812 356.452 45.7812C357.468 46.9731 356.378 47.9422 355.176 48.1714C353.434 48.504 351.154 47.6622 349.478 47.0935C349.286 47.1272 349.077 47.0717 348.952 46.9199C348.915 46.9079 348.878 46.8961 348.842 46.8846C346.773 49.1371 344.625 51.3153 342.49 53.4458C342.513 53.4446 342.536 53.4432 342.559 53.442C343.116 53.0802 343.713 52.7832 344.361 52.6275C345.858 52.2654 347.619 52.2628 348.833 53.3349C350.043 54.4024 350.471 56.2702 349.218 57.4702C346.711 59.8723 343.022 54.4001 341.758 54.1723C339.589 56.3146 337.295 58.3164 334.965 60.2778C335.229 60.1979 335.501 60.1391 335.781 60.1126C338.065 59.895 343.423 62.6649 340.62 65.3942C338.176 67.7726 335.352 63.1987 333.384 61.5995C331.189 63.4277 328.982 65.2433 326.836 67.1296C328.006 66.8214 329.136 66.7755 330.39 67.1501C331.687 67.5383 333.78 68.5074 332.959 70.2426C332.124 72.0072 329.61 71.2057 328.301 70.6462C327.587 70.3411 326.156 69.3108 324.899 68.8772C321.476 72.0785 318.51 75.6041 316.264 79.7567C314.861 82.3495 313.797 85.1193 313.047 87.966C312.568 89.7829 311.626 92.8347 311.813 95.1991C310.917 90.4666 312.544 84.7813 314.295 80.5499C315.906 76.6589 318.314 73.2426 321.135 70.1672C320.429 68.0601 314.475 65.0236 318.036 63.0639C319.927 62.0277 321.863 63.7445 322.275 65.5636C322.558 66.8136 322.125 68.3846 321.665 69.5982C322.553 68.6607 323.475 67.7533 324.426 66.876C325.739 65.6635 327.084 64.4862 328.442 63.3236C326.207 61.2439 324.093 55.2961 327.092 54.3217C331.521 52.8869 329.385 61.0024 329.075 62.5233C328.987 62.5285 328.919 62.5023 328.869 62.4461C328.894 62.5853 328.923 62.7342 328.957 62.8844C331.556 60.6709 334.194 58.501 336.744 56.2346C336.515 56.0666 336.15 55.4244 335.863 55.0826C335.216 54.312 334.597 53.5071 334.144 52.6056C333.429 51.1809 332.741 48.9081 334.637 48.0689C336.7 47.1546 337.679 49.725 337.693 51.2587C337.702 52.3194 337.41 53.3272 337.257 54.3669C337.21 54.6912 337.392 56.1527 336.946 55.5242C336.967 55.756 336.97 55.9239 336.959 56.0429C337.417 55.634 337.872 55.2207 338.323 54.8044C338.302 54.7518 338.287 54.6946 338.283 54.6281C338.259 54.1709 338.724 53.9946 339.05 54.1283C339.646 53.5676 340.236 52.9998 340.815 52.4207C342.043 51.1939 343.289 49.9321 344.526 48.6434C344.258 48.4153 344.365 48.0991 344.114 47.8569C343.864 47.6152 343.371 47.4817 343.076 47.2573C342.335 46.6924 341.721 45.8692 341.277 45.059C340.545 43.7202 339.598 40.9115 341.741 40.2722C343.951 39.6122 345.071 42.3157 345.212 44.0063C345.239 44.3338 344.99 47.2851 344.8 48.3569C347.089 45.9619 349.341 43.4772 351.382 40.9494C350.764 40.944 349.011 39.6904 348.657 39.3483C347.793 38.5138 346.419 36.6696 347.936 35.6926C349.284 34.826 350.945 36.0793 351.52 37.2979C351.615 37.4986 351.948 39.3665 351.974 40.2047C352.818 39.1327 353.624 38.0545 354.373 36.9728C354.873 36.2537 355.34 35.5155 355.778 34.7617C355.672 34.7028 355.574 34.5999 355.48 34.472C353.233 34.0953 350.368 30.6233 353.009 29.4135C354.267 28.8382 355.63 30.0237 356.245 30.9945C356.371 31.1932 356.575 32.192 356.741 32.9798C357.998 30.4827 358.96 27.8393 359.692 25.129C359.496 25.081 359.331 24.9331 359.309 24.6784C358.218 24.0628 357.356 23.5502 356.595 22.3657C356.122 21.63 355.271 19.9489 356.662 19.5397C358.472 19.0073 359.607 21.7443 359.755 23.0927C359.772 23.2492 359.771 23.7044 359.765 24.1216C359.827 24.113 359.891 24.114 359.953 24.1248C360.37 22.4467 360.702 20.7469 360.967 19.0444C359.98 18.73 359.811 13.5924 360.469 12.8606C361.94 11.2218 362.976 13.5875 362.897 14.8381C362.804 16.3127 362.128 17.6544 361.324 18.8452C361.238 18.9713 361.263 18.9652 361.24 18.7896C361.228 18.8764 361.199 18.9405 361.155 18.9869C361.196 19.7631 361.277 20.5577 361.237 21.2446C361.125 23.2115 360.893 25.19 360.556 27.1318C360.474 27.6041 360.38 28.0725 360.275 28.5368C361.069 27.8666 362.14 27.2708 362.559 27.0845C363.646 26.6014 365.322 26.0795 366.402 26.8965ZM311.635 95.0124C311.688 95.6444 311.844 96.2213 312.15 96.6939C311.925 96.1536 311.756 95.5911 311.635 95.0124Z" fill="#D2D2D2"/>
<g opacity="0.5">
<path opacity="0.5" fill-rule="evenodd" clip-rule="evenodd" d="M351.015 81.54C352.808 78.9842 356.134 72.4935 358.656 71.5802C360.281 70.992 359.808 77.0766 359.828 78.2368C359.906 82.7255 359.469 87.1857 358.929 91.6367C357.957 99.664 354.778 106.813 350.418 113.645C348.174 117.16 345.542 120.719 341.897 122.912C340.219 123.922 338.2 124.091 336.543 124.962C334.614 125.975 335.665 125.156 334.795 127.167C333.587 129.959 333.201 133.56 332.642 136.54C330.076 150.215 323.865 222.507 324.942 236.417C325.037 237.65 323.318 237.945 323.232 236.44C322.776 228.459 326.723 173.191 328.715 155.117C330.706 137.042 332.722 121.075 334.742 114.822C337.194 107.235 341.621 98.112 345.307 91.0374C347.019 87.7506 348.885 84.5772 351.015 81.54Z" fill="#8B8B8B"/>
<path opacity="0.5" fill-rule="evenodd" clip-rule="evenodd" d="M364.321 170.188C368.985 166.763 374.033 173.226 369.813 176.651C367.48 178.544 365.04 177.87 363.667 176.293C362.776 177.379 361.941 178.515 361.14 179.475C358.697 182.399 356.388 185.393 354.182 188.457C349.599 194.822 345.671 201.547 341.564 208.149C337.511 214.664 333.49 221.213 329.817 227.894C326.705 233.554 322.557 240.212 321.491 246.417C323.108 233.257 329.242 220.608 336.547 209.007C343.792 197.501 352.107 184.935 363.326 175.854C362.184 174.175 362.152 171.779 364.321 170.188Z" fill="#D2D2D2"/>
<path opacity="0.5" fill-rule="evenodd" clip-rule="evenodd" d="M275.816 138.093C278.426 138.603 282.691 144.507 284.842 146.757C287.399 149.43 289.719 152.28 291.905 155.265C296.613 161.691 300.822 168.523 304.402 175.648C310.238 187.263 314.913 199.186 318.307 211.833C320.384 219.576 321.728 227.6 322.525 235.569C322.676 237.071 324.252 248.658 321.981 248.97C319.939 249.251 320.57 240.172 320.471 238.937C319.358 225.005 316.022 211.448 311.382 198.316C310.371 195.455 309.432 191.952 307.816 189.377C306.652 187.523 307.808 188.17 305.762 187.468C304.006 186.865 302.005 187.012 300.206 186.274C296.299 184.672 293.17 181.561 290.428 178.432C285.098 172.352 280.875 165.773 278.674 157.981C277.452 153.661 276.33 149.316 275.707 144.862C275.546 143.711 274.135 137.764 275.816 138.093Z" fill="#8B8B8B"/>
<path opacity="0.5" fill-rule="evenodd" clip-rule="evenodd" d="M286.116 39.8576C295.947 56.9077 304.026 75.6368 309.243 94.6066C312.404 106.1 314.614 117.894 316.81 129.603C320.211 147.733 323.427 165.861 324.342 184.313C325.262 202.872 327.083 224.277 321.006 242.152C324.041 224.004 321.151 204.687 320.639 186.426C320.395 177.709 319.686 169.077 318.757 160.411C317.855 152.004 316.381 143.637 315.009 135.296C314.34 131.234 313.638 127.178 312.923 123.124C312.71 121.915 312.62 118.326 311.853 117.5C311.08 116.668 307.141 116.329 305.904 115.719C303.413 114.49 301.07 112.744 298.997 110.899C295.022 107.363 291.564 102.743 288.835 98.1878C282.52 87.6489 279.995 74.7875 280.123 62.5821C280.148 60.2123 283.959 34.694 282.428 34.3426C282.52 34.2347 282.607 34.1232 282.69 34.0073C283.848 35.9475 284.985 37.9008 286.116 39.8576Z" fill="#ABABAB"/>
<path opacity="0.5" fill-rule="evenodd" clip-rule="evenodd" d="M392.228 101.35C392.38 101.131 393.367 99.6092 392.87 99.7064C393.882 99.5084 391.478 101.385 394 100.233C392.802 101.364 393.493 102.834 393.509 104.356C393.536 106.827 393.122 109.278 392.657 111.697C391.921 115.52 390.825 119.236 389.235 122.792C385.769 130.54 379.883 138 372.895 142.844C369.445 145.236 366.064 146.05 362.13 147.151C359.645 147.847 359.448 149.132 358.128 151.544C355.382 156.567 352.685 161.571 350.263 166.764C347.371 172.964 344.563 179.17 341.915 185.48C332.994 206.732 325.732 228.749 321.919 251.535C321.826 238.107 324.932 224.278 328.85 211.479C331.704 202.154 335.42 193.165 339.383 184.267C340.344 182.112 341.799 179.339 342.207 176.959C342.492 175.291 341.619 173.688 341.219 171.931C339.661 165.091 339.773 157.427 341.141 150.55C342.65 142.967 347.013 139.448 354.395 138.374C357.094 137.981 360.526 138.125 363.001 136.974C365.698 135.72 366.81 131.6 368.344 128.955C372.463 121.851 377.357 115.038 382.976 109.052C384.532 107.394 386.206 105.865 387.981 104.447C389.1 103.553 391.465 102.451 392.228 101.35Z" fill="#ABABAB"/>
<path opacity="0.5" fill-rule="evenodd" clip-rule="evenodd" d="M309.46 237.034H335.656C336.834 237.034 337.788 237.989 337.788 239.166C337.788 239.27 337.781 239.374 337.766 239.477L335.741 253.207C335.124 257.392 331.532 260.493 327.302 260.493H317.814C313.583 260.493 309.992 257.392 309.375 253.207L307.35 239.477C307.178 238.312 307.983 237.228 309.149 237.057C309.252 237.041 309.356 237.034 309.46 237.034Z" fill="#D2D2D2"/>
</g>
<path fill-rule="evenodd" clip-rule="evenodd" d="M261.584 135.428C260.186 131.675 259.812 127.562 261.52 123.728C266.441 112.68 281.315 120.918 282.302 127.757C283.289 134.596 277.642 148.978 273.302 148.556C271.572 148.388 268.565 146.162 265.887 142.846L262.496 158.863L249.782 154.236L261.584 135.428Z" fill="#8D8D8D"/>
<path fill-rule="evenodd" clip-rule="evenodd" d="M280.81 122.942C280.582 122.662 280.106 122.073 279.846 121.828C279.785 121.77 279.406 121.219 279.391 121.218C278.956 121.208 277.659 121.282 277.411 121.664C277.385 121.69 277.359 121.714 277.336 121.735C277.072 121.966 276.818 122.209 276.57 122.458C276.025 123.005 275.512 123.596 275.012 124.187C274.038 125.336 273.118 126.541 272.231 127.76C271.328 129.002 270.479 130.282 269.593 131.536C268.319 133.342 266.91 135.042 265.64 136.848C264.829 138.001 264.166 139.225 263.778 140.575C263.773 140.591 263.768 140.607 263.764 140.623C263.762 140.63 263.76 140.637 263.758 140.644C263.7 140.851 263.648 141.062 263.604 141.276C263.566 141.46 263.528 141.644 263.492 141.828C264.345 141.023 265.118 140.074 265.893 139.189C265.969 139.102 266.043 139.014 266.117 138.926C266.322 138.764 266.529 138.604 266.738 138.446C268.052 137.448 269.367 136.455 270.655 135.421C272.972 133.561 275.294 131.645 277.808 130.078C278.551 129.615 279.302 129.166 280.04 128.696C280.46 128.428 280.875 128.152 281.283 127.865C281.575 127.66 282.758 127.006 282.665 126.32C282.618 125.97 281.401 123.668 280.81 122.942Z" fill="#2C2C2C"/>
<path fill-rule="evenodd" clip-rule="evenodd" d="M279.921 121.91C280.169 122.108 280.246 121.468 280.047 121.161C279.126 119.738 274.394 117.621 269.847 116.96C266.801 116.517 262.974 116.781 260.027 117.839C257.371 118.793 254.979 121.001 253.3 123.365C251.538 125.847 250.377 128.681 249.77 131.663C249.637 132.318 249.621 132.983 249.51 133.631C249.386 134.362 249.21 135.044 249.191 135.792C249.179 136.249 249.266 136.734 249.233 137.186C249.196 137.703 248.957 138.106 248.687 138.547C248.246 139.266 247.768 139.969 247.22 140.608C246.396 141.569 245.509 142.426 244.771 143.465C243.788 144.848 240.197 149.204 240.995 151.038L265.638 160.007C265.634 158.088 264.496 155.418 264.779 153.469C264.945 152.321 265.688 149.951 265.695 149.858C266.533 145.828 266.114 143.605 265.677 142.695C265.239 141.784 264.409 141.251 264.572 140.658C265.245 138.208 267.022 136.272 268.524 134.303C270.315 131.957 271.909 129.464 273.722 127.136C274.525 126.105 278.63 120.88 279.921 121.91Z" fill="#B3B3B3"/>
<path fill-rule="evenodd" clip-rule="evenodd" d="M270.284 121.503C268.281 124.113 267.509 125.614 266.242 129.716L265.786 129.55C266.319 125.438 268.379 122.135 269.711 121.294L270.284 121.503ZM255.047 124.575C255.25 129.407 255.136 132.176 258.734 137.336L258.266 137.462C254.455 132.994 254.239 129.24 254.619 124.617L255.047 124.575ZM263.719 122.888C262.335 129.139 261.324 132.629 263.047 140.645L262.563 140.619C260.413 133.404 261.432 128.524 263.3 122.773L263.719 122.888ZM252.744 138.958L253.282 138.64C257.792 142.087 256.027 145.171 261.224 150.838L260.57 150.967C255.8 146.608 256.296 141.162 252.744 138.958Z" fill="black" fill-opacity="0.2"/>
<path fill-rule="evenodd" clip-rule="evenodd" d="M232.466 203.88L274.356 273.912L305.761 333.118H312.526L259.906 203.88L232.466 203.88Z" fill="#797979"/>
<path fill-rule="evenodd" clip-rule="evenodd" d="M301.625 330.385C300.994 332.068 300.679 333.328 300.679 334.164C300.679 335.18 300.848 336.664 301.187 338.614C302.366 338.614 312.965 338.614 332.983 338.614C333.809 335.882 333.332 334.408 331.552 334.19C329.772 333.972 328.293 333.776 327.116 333.6L312.337 327.012C312.053 326.885 311.719 327.013 311.593 327.297C311.591 327.302 311.588 327.307 311.586 327.312L310.636 329.616C308.988 330.385 307.649 330.769 306.619 330.769C305.782 330.769 304.626 330.431 303.151 329.755L303.151 329.755C302.585 329.496 301.915 329.744 301.656 330.31C301.645 330.335 301.634 330.359 301.625 330.385Z" fill="#E4E4E4"/>
<path fill-rule="evenodd" clip-rule="evenodd" d="M297.039 323.637L310.084 319.691C304.369 302.605 297.364 283.802 289.069 263.284C280.774 242.765 271.866 222.963 262.345 203.88H225.501C236.087 228.02 247.309 249.954 259.169 269.683C271.028 289.411 283.651 307.396 297.039 323.637Z" fill="#7E7E7E"/>
<path fill-rule="evenodd" clip-rule="evenodd" d="M229.713 203.88C225.76 228.489 218.134 259.931 217.415 260.901C216.935 261.548 199.663 267.336 165.601 278.264L167.062 284.229C207.682 278.368 229.085 273.821 231.271 270.588C234.551 265.738 250.928 227.423 257.271 203.88H229.713Z" fill="#8D8D8D"/>
<path fill-rule="evenodd" clip-rule="evenodd" d="M177.574 273.107L180.148 282.714C210.53 285.379 229.145 283.454 235.994 276.938C242.843 270.423 250.65 246.07 259.413 203.88H224.28C218.728 238.428 215.624 256.427 214.968 257.878C214.312 259.328 201.848 264.404 177.574 273.107Z" fill="#999999"/>
<path fill-rule="evenodd" clip-rule="evenodd" d="M167.269 275.779C165.501 275.45 164.206 275.358 163.383 275.503C162.382 275.68 160.95 276.104 159.088 276.776C159.293 277.938 161.133 288.375 164.609 308.089C167.443 308.429 168.813 307.703 168.718 305.912C168.623 304.121 168.56 302.63 168.529 301.44L172.451 285.742C172.526 285.44 172.342 285.134 172.04 285.059C172.035 285.057 172.03 285.056 172.025 285.055L169.59 284.52C168.547 283.03 167.936 281.778 167.757 280.763C167.612 279.939 167.744 278.742 168.154 277.172L168.154 277.172C168.311 276.569 167.95 275.953 167.347 275.796C167.321 275.789 167.295 275.783 167.269 275.779Z" fill="#E4E4E4"/>
<path fill-rule="evenodd" clip-rule="evenodd" d="M281.416 203.871L294.198 222.158C298.4 224.987 301.735 227.856 304.205 230.766C304.71 231.681 305.134 233.328 302.172 232.05C299.209 230.773 296.036 229.561 295.261 230.445C294.486 231.329 295.903 233.192 294.576 234.288C293.691 235.019 291.819 231.781 288.959 224.573L274.455 211.818L281.416 203.871ZM208.322 177.854L217.628 181.842C201.249 201.409 192.512 211.737 191.416 212.826C188.95 215.276 189.581 220.863 189.64 223.748C185.416 223.82 188.279 218.146 182.917 218.316C178.023 218.47 173.456 220.571 169.96 215.681C169.53 215.08 169.463 213.473 171.446 213.079C176.389 212.096 183.854 209.875 185.239 208.691C187.128 207.076 194.823 196.797 208.322 177.854Z" fill="#8D8D8D"/>
<path fill-rule="evenodd" clip-rule="evenodd" d="M259.262 149.571L265.786 149.211C268.523 171.543 275.432 194.292 291.293 216.193L283.982 223.425C268.953 208.245 254.252 195.642 251.592 178.193C250.7 172.336 257.395 155.787 259.262 149.571Z" fill="#CECECE"/>
<path fill-rule="evenodd" clip-rule="evenodd" d="M223.465 200.765C240.162 207.175 253.685 210.799 264.035 211.636C265.317 211.74 266.053 209.762 265.856 208.233C262.775 184.424 261.735 164.09 265.726 149.195C263.89 149.571 261.023 148.933 257.125 147.281C242.129 159.714 232.408 175.986 223.465 200.765Z" fill="#353535"/>
<path fill-rule="evenodd" clip-rule="evenodd" d="M254.764 145.269L259.3 146.484C258.706 152.925 239.692 237.207 242.666 267.241L187.029 252.333C194.931 227.667 212.489 200.198 228.859 177.661C218.264 183.11 207.325 194.223 196.041 210.998L186.33 205.553C202.95 174.524 225.401 154.461 253.683 145.362C253.768 145.256 253.851 145.151 253.935 145.047L254.336 145.154C254.509 145.1 254.682 145.046 254.856 144.992L254.764 145.269V145.269Z" fill="#E3E3E3"/>
<path d="M169.866 205.607C186.259 228.194 196.039 251.106 199.625 277.652C203.164 304.15 200.509 334.235 184.117 354.307C167.77 374.425 137.686 384.531 107.648 384.485C77.6563 384.438 47.6648 374.192 28.012 354.121C8.40583 334.002 -0.908284 304.011 0.0696978 275.044C1.04768 246.077 12.3643 218.088 31.9705 195.501C51.6233 172.914 79.6122 155.73 105.086 158.245C130.56 160.759 153.473 183.02 169.866 205.607Z" fill="#E5E4E4"/>
</g>
<defs>
<clipPath id="clip0">
<rect width="400" height="400" fill="white"/>
</clipPath>
</defs>
</svg>
