<svg width="376" height="376" viewBox="0 0 376 376" fill="none" xmlns="http://www.w3.org/2000/svg">
<g opacity="0.8">
<path d="M270.72 98.512C287.515 122.137 288.204 155.037 285.76 185.556C283.316 216.075 277.739 244.149 260.944 268.025C244.149 291.964 216.075 311.767 180.919 318.848C145.763 325.929 103.525 320.352 76.3281 296.413C49.1934 272.475 37.1614 230.237 40.9841 191.823C44.8067 153.408 64.5467 118.879 91.7441 95.2534C118.879 71.6907 153.408 59.032 187.185 59.8467C220.963 60.6614 253.863 74.8867 270.72 98.512Z" fill="#B7B7B7" fill-opacity="0.34"/>
<path d="M272 164C301.271 164 325 140.271 325 111C325 81.7289 301.271 58 272 58C242.729 58 219 81.7289 219 111C219 140.271 242.729 164 272 164Z" fill="#F2F2F2"/>
<path d="M272 72C273.657 72 275 70.6569 275 69C275 67.3431 273.657 66 272 66C270.343 66 269 67.3431 269 69C269 70.6569 270.343 72 272 72Z" fill="black" fill-opacity="0.1"/>
<path d="M230 114C231.657 114 233 112.657 233 111C233 109.343 231.657 108 230 108C228.343 108 227 109.343 227 111C227 112.657 228.343 114 230 114Z" fill="black" fill-opacity="0.1"/>
<path d="M314 114C315.657 114 317 112.657 317 111C317 109.343 315.657 108 314 108C312.343 108 311 109.343 311 111C311 112.657 312.343 114 314 114Z" fill="black" fill-opacity="0.1"/>
<path d="M272 156C273.657 156 275 154.657 275 153C275 151.343 273.657 150 272 150C270.343 150 269 151.343 269 153C269 154.657 270.343 156 272 156Z" fill="black" fill-opacity="0.1"/>
<path fill-rule="evenodd" clip-rule="evenodd" d="M272 75L274 110H270L272 75Z" fill="#BABABA"/>
<path fill-rule="evenodd" clip-rule="evenodd" d="M289.699 128.699L271.314 113.142L274.142 110.314L289.699 128.699Z" fill="#BABABA"/>
<path d="M272 115C274.209 115 276 113.209 276 111C276 108.791 274.209 107 272 107C269.791 107 268 108.791 268 111C268 113.209 269.791 115 272 115Z" fill="#CECECE"/>
<g opacity="0.7">
<path fill-rule="evenodd" clip-rule="evenodd" d="M194.6 94.7157C196.351 101.167 198.632 115.668 196.304 117.943H181.575C181.574 117.917 181.572 117.891 181.571 117.865C176.112 117.261 171.866 112.632 171.866 107.012V96.346C171.866 90.3152 176.755 85.4263 182.785 85.4263H183.801C189.278 85.4263 193.813 89.4582 194.6 94.7157Z" fill="#5A5959"/>
<path fill-rule="evenodd" clip-rule="evenodd" d="M177.586 104.975C175.245 102.228 173.661 98.8616 173.926 95.0892C174.689 84.22 189.819 86.6111 192.762 92.097C195.705 97.5828 195.356 111.498 191.552 112.479C190.035 112.87 186.803 111.912 183.514 109.929L185.579 124.534H173.389L177.586 104.975Z" fill="#ABABAB"/>
<path fill-rule="evenodd" clip-rule="evenodd" d="M180.881 103.139C181.442 109.172 181.217 116.061 179.544 117.696H164.815C163.994 103.438 171.925 108.96 171.925 95.5348C172.42 95.0517 172.887 94.5735 173.349 94.1611L173.333 93.7663C175.883 88.5449 179.119 85.9342 183.04 85.9342C188.922 85.9342 190.778 88.6709 192.359 90.9944C191.177 95.05 186.59 95.6513 182.514 98.1793C182.034 97.789 181.421 97.555 180.754 97.555C179.211 97.555 177.96 98.8057 177.96 100.348C177.96 101.891 179.211 103.142 180.754 103.142C180.796 103.142 180.839 103.141 180.881 103.139Z" fill="#5A5959"/>
<path fill-rule="evenodd" clip-rule="evenodd" d="M153.789 216.508C165.973 219.916 176.485 221.62 185.325 221.62C194.165 221.62 202.376 218.996 209.958 213.748C198.035 210.25 188.215 208.501 180.5 208.501C172.784 208.501 163.881 211.17 153.789 216.508Z" fill="#777777"/>
<path fill-rule="evenodd" clip-rule="evenodd" d="M195.872 226.532C195.755 226.355 195.656 226.163 195.577 225.955C193.948 221.648 167.862 175.184 165.263 166.689H194.633C196.609 173.148 205.502 213.68 206.754 221.766C210.703 234.522 218.833 275.834 219.871 278.696C220.963 281.706 214.82 284.843 213.182 281.141C210.577 275.252 204.37 258.956 201.607 249.006C199.016 239.678 196.906 231.286 195.872 226.532Z" fill="#969696"/>
<path fill-rule="evenodd" clip-rule="evenodd" d="M171.844 232.205C159.918 235.219 116.294 240.668 113.3 241.523C110.221 242.402 107.521 236.055 111.327 234.68C117.384 232.492 134.073 227.437 144.191 225.374C152.33 223.714 159.757 222.361 164.743 221.568C164.321 207.562 162.39 173.949 163.655 166.689H189.642C188.428 173.651 178.169 224.446 176.262 229.531C175.657 231.346 173.851 232.148 171.844 232.205Z" fill="#ABABAB"/>
<path fill-rule="evenodd" clip-rule="evenodd" d="M111.603 232.989C110.011 232.693 108.844 232.611 108.102 232.741C107.2 232.9 105.911 233.283 104.233 233.888C104.418 234.935 106.076 244.338 109.208 262.099C111.76 262.405 112.994 261.751 112.909 260.138C112.824 258.524 112.767 257.181 112.738 256.109L116.272 241.966C116.34 241.694 116.174 241.418 115.902 241.35C115.898 241.349 115.893 241.348 115.888 241.347L113.695 240.865C112.755 239.523 112.204 238.395 112.043 237.481C111.912 236.738 112.031 235.659 112.401 234.245L112.401 234.245C112.542 233.702 112.217 233.147 111.674 233.005C111.651 232.999 111.627 232.994 111.603 232.989Z" fill="#CECECE"/>
<path fill-rule="evenodd" clip-rule="evenodd" d="M211.318 280.662C210.75 282.179 210.466 283.314 210.466 284.067C210.466 284.983 210.618 286.319 210.924 288.076C211.986 288.076 221.535 288.076 239.57 288.076C240.314 285.615 239.884 284.287 238.281 284.09C236.677 283.894 235.344 283.717 234.284 283.559L220.969 277.623C220.713 277.509 220.413 277.624 220.298 277.88C220.296 277.885 220.295 277.889 220.293 277.894L219.437 279.97C217.952 280.662 216.746 281.009 215.817 281.009C215.063 281.009 214.022 280.704 212.693 280.095L212.693 280.095C212.183 279.861 211.58 280.085 211.346 280.595C211.336 280.617 211.327 280.639 211.318 280.662Z" fill="#CDCDCD"/>
<path fill-rule="evenodd" clip-rule="evenodd" d="M163.739 166.69C175.191 163.413 186.026 163.413 196.245 166.69C199.8 182.91 208.439 189.348 209.958 214.218C192.689 222.798 171.358 208.098 153.582 216.466C148.503 204.762 155.613 176.575 163.739 166.69Z" fill="#959595"/>
<path fill-rule="evenodd" clip-rule="evenodd" d="M213.005 146.531L233.058 143.796C237.07 141.565 240.76 140.054 244.129 139.265C245.077 139.237 246.586 139.582 244.339 141.455C242.092 143.328 239.812 145.4 240.212 146.4C240.613 147.399 242.702 147.027 243.048 148.565C243.279 149.59 239.888 149.757 232.874 149.065L216.603 155.516L213.005 146.531ZM150.011 151.173L161.132 151.215C148.937 178.658 142.579 193.027 142.056 194.322C140.881 197.234 143.368 201.67 144.432 204.054C140.968 205.604 141.337 199.863 136.967 201.896C132.979 203.752 129.945 207.114 125.337 204.271C124.77 203.921 124.15 202.605 125.65 201.576C129.387 199.014 134.772 194.529 135.499 193.053C136.492 191.04 141.329 177.08 150.011 151.173Z" fill="#ABABAB"/>
<path fill-rule="evenodd" clip-rule="evenodd" d="M180.474 115.9L189.182 116.48C191.327 135.882 203.008 148.137 229.162 143.989L232.636 168.974C208.192 172.133 186.754 162.347 182.36 135.849C181.223 128.99 180.325 121.851 180.474 115.9Z" fill="#BABABA"/>
<path fill-rule="evenodd" clip-rule="evenodd" d="M176.178 113.369L189.372 116.39C189.372 139.083 196.6 153.561 200.308 170.245H164.676C164.174 176.01 163.866 181.935 163.705 188.021H137.025C143.071 155.853 155.831 130.966 175.307 113.36H176.171L176.178 113.369Z" fill="#CECECE"/>
<path fill-rule="evenodd" clip-rule="evenodd" d="M170.298 137.871C169.379 152.012 169.919 162.803 171.918 170.245H164.676C165.67 158.824 167.425 148.033 170.298 137.871V137.871Z" fill="black" fill-opacity="0.1"/>
</g>
</g>
</svg>
