<svg width="154" height="154" viewBox="0 0 154 154" fill="none" xmlns="http://www.w3.org/2000/svg">
<path d="M30.961 50.6283L77.4026 21L123.844 50.6283V102.239L77.4026 129L30.961 102.239V50.6283Z" fill="url(#paint0_linear)"/>
<path d="M104.494 102.239H50.3117L77.4026 129L104.494 102.239Z" fill="white" fill-opacity="0.2"/>
<path d="M50.3117 102.239L77.4026 50.6283H30.961L50.3117 102.239Z" fill="white" fill-opacity="0.2"/>
<path d="M104.494 102.239L77.4026 50.6283H123.844L104.494 102.239Z" fill="white" fill-opacity="0.2"/>
<path d="M50.3117 102.239L77.4026 50.6283L104.494 102.239H50.3117Z" fill="white" fill-opacity="0.4"/>
<path d="M50.3117 102.239L30.961 51.1062V102.239H50.3117Z" fill="white" fill-opacity="0.05"/>
<path d="M104.494 102.239H123.844V51.1062L104.494 102.239Z" fill="white" fill-opacity="0.05"/>
<path d="M77.4026 129L50.3117 102.239H30.961L77.4026 129Z" fill="white" fill-opacity="0.05"/>
<path d="M77.4026 129L50.3117 102.239H30.961L77.4026 129Z" fill="white" fill-opacity="0.05"/>
<path d="M77.4026 129L104.494 102.239H123.844L77.4026 129Z" fill="white" fill-opacity="0.05"/>
<path d="M77.4026 129L104.494 102.239H123.844L77.4026 129Z" fill="white" fill-opacity="0.05"/>
<path d="M77.4026 21V50.6283H30.961L77.4026 21Z" fill="white" fill-opacity="0.1"/>
<path d="M77.4026 21V50.6283H123.844L77.4026 21Z" fill="white" fill-opacity="0.05"/>
<defs>
<linearGradient id="paint0_linear" x1="52.2468" y1="36.7699" x2="104.573" y2="114.782" gradientUnits="userSpaceOnUse">
<stop stop-color="#B24592"/>
<stop offset="1" stop-color="#F15F79"/>
</linearGradient>
</defs>
</svg>
